<svg id="visual" viewBox="0 0 960 540" width="960" height="540" xmlns="http://www.w3.org/2000/svg" xmlns:xlink="http://www.w3.org/1999/xlink" version="1.1"><g stroke-width="1" stroke-linejoin="bevel"><path d="M468.7 277.6L463.7 197.3L451.7 261.5Z" fill="#001a99" stroke="#001a99"></path><path d="M463.7 197.3L444.3 231.5L451.7 261.5Z" fill="#000f46" stroke="#000f46"></path><path d="M564.3 261.6L510.8 169.5L463.7 197.3Z" fill="#001baa" stroke="#001baa"></path><path d="M422.3 223.5L422.2 230.5L444.3 231.5Z" fill="#001566" stroke="#001566"></path><path d="M444.3 231.5L413.7 243.4L451.7 261.5Z" fill="#001baa" stroke="#001baa"></path><path d="M463.7 197.3L422.3 223.5L444.3 231.5Z" fill="#001988" stroke="#001988"></path><path d="M468.7 277.6L564.3 261.6L463.7 197.3Z" fill="#001baa" stroke="#001baa"></path><path d="M422.3 223.5L413.7 243.4L422.2 230.5Z" fill="#000f46" stroke="#000f46"></path><path d="M422.2 230.5L413.7 243.4L444.3 231.5Z" fill="#050836" stroke="#050836"></path><path d="M451.7 261.5L342.2 365.8L468.7 277.6Z" fill="#001566" stroke="#001566"></path><path d="M539.7 329.5L580.3 273.5L564.3 261.6Z" fill="#0d1acd" stroke="#0d1acd"></path><path d="M564.3 261.6L586.3 162.4L510.8 169.5Z" fill="#0d1acd" stroke="#0d1acd"></path><path d="M580.3 273.5L589.8 256.5L564.3 261.6Z" fill="#001777" stroke="#001777"></path><path d="M492.3 358.6L539.7 329.5L468.7 277.6Z" fill="#001777" stroke="#001777"></path><path d="M468.7 277.6L539.7 329.5L564.3 261.6Z" fill="#001777" stroke="#001777"></path><path d="M594.3 138.1L496.8 118.1L510.8 169.5Z" fill="#001baa" stroke="#001baa"></path><path d="M510.8 169.5L496.8 118.1L463.7 197.3Z" fill="#0d1acd" stroke="#0d1acd"></path><path d="M342.6 157.3L362.2 213.4L422.3 223.5Z" fill="#0d1acd" stroke="#0d1acd"></path><path d="M589.8 256.5L586.3 162.4L564.3 261.6Z" fill="#001256" stroke="#001256"></path><path d="M342.2 365.8L492.3 358.6L468.7 277.6Z" fill="#001988" stroke="#001988"></path><path d="M580.3 273.5L613.3 260.5L589.8 256.5Z" fill="#0d1acd" stroke="#0d1acd"></path><path d="M589.8 256.5L613.3 260.5L586.3 162.4Z" fill="#1818de" stroke="#1818de"></path><path d="M579.8 335.5L613.3 260.5L580.3 273.5Z" fill="#0d1acd" stroke="#0d1acd"></path><path d="M342.6 157.3L422.3 223.5L463.7 197.3Z" fill="#001777" stroke="#001777"></path><path d="M422.3 223.5L362.2 213.4L413.7 243.4Z" fill="#000f46" stroke="#000f46"></path><path d="M413.7 243.4L329.2 312.7L451.7 261.5Z" fill="#001988" stroke="#001988"></path><path d="M558.8 389.6L579.8 335.5L539.7 329.5Z" fill="#001baa" stroke="#001baa"></path><path d="M539.7 329.5L579.8 335.5L580.3 273.5Z" fill="#001566" stroke="#001566"></path><path d="M615.8 124.1L594.3 138.1L649.8 166.3Z" fill="#001baa" stroke="#001baa"></path><path d="M586.3 162.4L594.3 138.1L510.8 169.5Z" fill="#001988" stroke="#001988"></path><path d="M338.2 207.5L340.6 217.5L362.2 213.4Z" fill="#001566" stroke="#001566"></path><path d="M362.2 213.4L333.6 258.5L413.7 243.4Z" fill="#050836" stroke="#050836"></path><path d="M342.6 157.3L338.2 207.5L362.2 213.4Z" fill="#1818de" stroke="#1818de"></path><path d="M600.3 110.1L591.3 110.3L594.3 138.1Z" fill="#050836" stroke="#050836"></path><path d="M594.3 138.1L591.3 110.3L496.8 118.1Z" fill="#041bbb" stroke="#041bbb"></path><path d="M321.2 251.5L333.6 258.5L340.6 217.5Z" fill="#001566" stroke="#001566"></path><path d="M340.6 217.5L333.6 258.5L362.2 213.4Z" fill="#1818de" stroke="#1818de"></path><path d="M615.8 124.1L600.3 110.1L594.3 138.1Z" fill="#050836" stroke="#050836"></path><path d="M649.8 166.3L594.3 138.1L586.3 162.4Z" fill="#001566" stroke="#001566"></path><path d="M492.3 358.6L558.8 389.6L539.7 329.5Z" fill="#001a99" stroke="#001a99"></path><path d="M579.8 335.5L612.4 352.7L613.3 260.5Z" fill="#001256" stroke="#001256"></path><path d="M564.3 389.8L612.4 352.7L579.8 335.5Z" fill="#001988" stroke="#001988"></path><path d="M613.3 260.5L649.8 166.3L586.3 162.4Z" fill="#001566" stroke="#001566"></path><path d="M352.2 112.4L342.6 157.3L463.7 197.3Z" fill="#1818de" stroke="#1818de"></path><path d="M558.8 389.6L564.3 389.8L579.8 335.5Z" fill="#000f46" stroke="#000f46"></path><path d="M324.2 199.3L321.2 251.5L340.6 217.5Z" fill="#001988" stroke="#001988"></path><path d="M333.6 258.5L329.2 312.7L413.7 243.4Z" fill="#001baa" stroke="#001baa"></path><path d="M324.2 199.3L340.6 217.5L338.2 207.5Z" fill="#001256" stroke="#001256"></path><path d="M342.6 157.3L324.2 199.3L338.2 207.5Z" fill="#050836" stroke="#050836"></path><path d="M685.8 192.2L649.8 166.3L613.3 260.5Z" fill="#000f46" stroke="#000f46"></path><path d="M280.2 280.5L329.2 312.7L333.6 258.5Z" fill="#050836" stroke="#050836"></path><path d="M492.3 358.6L487.7 429.7L558.8 389.6Z" fill="#001a99" stroke="#001a99"></path><path d="M342.6 157.3L318.7 171.2L324.2 199.3Z" fill="#001988" stroke="#001988"></path><path d="M263.7 242.3L280.2 280.5L321.2 251.5Z" fill="#001777" stroke="#001777"></path><path d="M679.8 290.4L675.3 265.4L613.3 260.5Z" fill="#001256" stroke="#001256"></path><path d="M496.8 118.1L352.2 112.4L463.7 197.3Z" fill="#041bbb" stroke="#041bbb"></path><path d="M342.6 157.3L312.7 149.5L318.7 171.2Z" fill="#001256" stroke="#001256"></path><path d="M409.2 0L352.2 112.4L496.8 118.1Z" fill="#001a99" stroke="#001a99"></path><path d="M525.3 50.3L496.8 118.1L591.3 110.3Z" fill="#0d1acd" stroke="#0d1acd"></path><path d="M526.3 43.2L525.3 50.3L606.8 65.2Z" fill="#041bbb" stroke="#041bbb"></path><path d="M525.3 50.3L501.2 46.2L496.8 118.1Z" fill="#0d1acd" stroke="#0d1acd"></path><path d="M615.8 124.1L626.3 99.2L600.3 110.1Z" fill="#1818de" stroke="#1818de"></path><path d="M600.3 110.1L606.8 65.2L591.3 110.3Z" fill="#001a99" stroke="#001a99"></path><path d="M640.8 104.4L626.3 99.2L615.8 124.1Z" fill="#041bbb" stroke="#041bbb"></path><path d="M394.7 425.6L450.2 423.7L492.3 358.6Z" fill="#1818de" stroke="#1818de"></path><path d="M558.8 389.6L555.8 435.8L564.3 389.8Z" fill="#1818de" stroke="#1818de"></path><path d="M450.2 423.7L487.7 429.7L492.3 358.6Z" fill="#050836" stroke="#050836"></path><path d="M612.4 352.7L679.8 290.4L613.3 260.5Z" fill="#050836" stroke="#050836"></path><path d="M606.8 65.2L525.3 50.3L591.3 110.3Z" fill="#050836" stroke="#050836"></path><path d="M525.3 50.3L526.3 43.2L501.2 46.2Z" fill="#041bbb" stroke="#041bbb"></path><path d="M324.7 372.5L332.7 349.8L307.2 348.8Z" fill="#001777" stroke="#001777"></path><path d="M329.2 312.7L342.2 365.8L451.7 261.5Z" fill="#001988" stroke="#001988"></path><path d="M671.4 88.2L640.8 104.4L649.8 166.3Z" fill="#001256" stroke="#001256"></path><path d="M649.8 166.3L640.8 104.4L615.8 124.1Z" fill="#001256" stroke="#001256"></path><path d="M626.3 99.2L606.8 65.2L600.3 110.1Z" fill="#001988" stroke="#001988"></path><path d="M593.8 427.9L627.8 380.7L564.3 389.8Z" fill="#000f46" stroke="#000f46"></path><path d="M564.3 389.8L627.8 380.7L612.4 352.7Z" fill="#001988" stroke="#001988"></path><path d="M612.4 352.7L627.8 380.7L679.8 290.4Z" fill="#000f46" stroke="#000f46"></path><path d="M718.9 221.3L685.8 192.2L675.3 265.4Z" fill="#001988" stroke="#001988"></path><path d="M675.3 265.4L685.8 192.2L613.3 260.5Z" fill="#0d1acd" stroke="#0d1acd"></path><path d="M332.7 349.8L342.2 365.8L329.2 312.7Z" fill="#1818de" stroke="#1818de"></path><path d="M352.2 112.4L312.7 149.5L342.6 157.3Z" fill="#001988" stroke="#001988"></path><path d="M263.7 242.3L321.2 251.5L324.2 199.3Z" fill="#0d1acd" stroke="#0d1acd"></path><path d="M671.4 88.2L606.8 65.2L626.3 99.2Z" fill="#1818de" stroke="#1818de"></path><path d="M450.2 423.7L485.3 441.8L487.7 429.7Z" fill="#050836" stroke="#050836"></path><path d="M487.7 429.7L555.8 435.8L558.8 389.6Z" fill="#1818de" stroke="#1818de"></path><path d="M485.3 441.8L555.8 435.8L487.7 429.7Z" fill="#001256" stroke="#001256"></path><path d="M342.2 365.8L394.7 425.6L492.3 358.6Z" fill="#001988" stroke="#001988"></path><path d="M450.2 423.7L416.2 441.6L485.3 441.8Z" fill="#001256" stroke="#001256"></path><path d="M332.7 349.8L324.7 372.5L342.2 365.8Z" fill="#001256" stroke="#001256"></path><path d="M342.2 365.8L321.2 393.9L394.7 425.6Z" fill="#000f46" stroke="#000f46"></path><path d="M307.2 348.8L332.7 349.8L329.2 312.7Z" fill="#050836" stroke="#050836"></path><path d="M280.2 280.5L333.6 258.5L321.2 251.5Z" fill="#041bbb" stroke="#041bbb"></path><path d="M284.7 152.4L324.2 199.3L318.7 171.2Z" fill="#001566" stroke="#001566"></path><path d="M280.2 280.5L307.2 348.8L329.2 312.7Z" fill="#001777" stroke="#001777"></path><path d="M555.8 435.8L593.8 427.9L564.3 389.8Z" fill="#041bbb" stroke="#041bbb"></path><path d="M394.7 425.6L416.2 441.6L450.2 423.7Z" fill="#1818de" stroke="#1818de"></path><path d="M510.7 496.8L560.3 444.7L555.8 435.8Z" fill="#001a99" stroke="#001a99"></path><path d="M555.8 435.8L560.3 444.7L593.8 427.9Z" fill="#0d1acd" stroke="#0d1acd"></path><path d="M576.3 471.7L560.3 444.7L571.8 491.7Z" fill="#041bbb" stroke="#041bbb"></path><path d="M507.3 0L502.7 15.2L529.8 0Z" fill="#001777" stroke="#001777"></path><path d="M526.3 43.2L502.7 15.2L501.2 46.2Z" fill="#050836" stroke="#050836"></path><path d="M501.2 46.2L409.2 0L496.8 118.1Z" fill="#050836" stroke="#050836"></path><path d="M272.6 138.1L284.7 152.4L312.7 149.5Z" fill="#001baa" stroke="#001baa"></path><path d="M312.7 149.5L284.7 152.4L318.7 171.2Z" fill="#001baa" stroke="#001baa"></path><path d="M272.6 138.1L312.7 149.5L291.2 82.3Z" fill="#001a99" stroke="#001a99"></path><path d="M741.4 306.7L718.9 221.3L675.3 265.4Z" fill="#001baa" stroke="#001baa"></path><path d="M697.9 85.1L671.4 88.2L649.8 166.3Z" fill="#050836" stroke="#050836"></path><path d="M242.1 169.5L263.7 242.3L324.2 199.3Z" fill="#000f46" stroke="#000f46"></path><path d="M211.1 376.6L321.2 393.9L307.2 348.8Z" fill="#001a99" stroke="#001a99"></path><path d="M721.4 179.5L649.8 166.3L685.8 192.2Z" fill="#001a99" stroke="#001a99"></path><path d="M640.8 104.4L671.4 88.2L626.3 99.2Z" fill="#000f46" stroke="#000f46"></path><path d="M529.8 0L502.7 15.2L526.3 43.2Z" fill="#001566" stroke="#001566"></path><path d="M239.2 321.6L307.2 348.8L280.2 280.5Z" fill="#001988" stroke="#001988"></path><path d="M307.2 348.8L321.2 393.9L324.7 372.5Z" fill="#001566" stroke="#001566"></path><path d="M324.7 372.5L321.2 393.9L342.2 365.8Z" fill="#001baa" stroke="#001baa"></path><path d="M381.2 540L423.7 527.9L416.2 441.6Z" fill="#001777" stroke="#001777"></path><path d="M718.9 221.3L721.4 179.5L685.8 192.2Z" fill="#001777" stroke="#001777"></path><path d="M529.8 0L526.3 43.2L606.8 65.2Z" fill="#000f46" stroke="#000f46"></path><path d="M502.7 15.2L459.7 0L501.2 46.2Z" fill="#0d1acd" stroke="#0d1acd"></path><path d="M718.9 221.3L722.4 179.5L721.4 179.5Z" fill="#001256" stroke="#001256"></path><path d="M721.4 179.5L697.9 85.1L649.8 166.3Z" fill="#1818de" stroke="#1818de"></path><path d="M507.3 0L459.7 0L502.7 15.2Z" fill="#000f46" stroke="#000f46"></path><path d="M640.4 0L529.8 0L606.8 65.2Z" fill="#0d1acd" stroke="#0d1acd"></path><path d="M459.7 0L449.3 0L501.2 46.2Z" fill="#001256" stroke="#001256"></path><path d="M291.2 82.3L312.7 149.5L352.2 112.4Z" fill="#000f46" stroke="#000f46"></path><path d="M284.7 152.4L242.1 169.5L324.2 199.3Z" fill="#001777" stroke="#001777"></path><path d="M644.8 452.9L627.8 380.7L593.8 427.9Z" fill="#001988" stroke="#001988"></path><path d="M644.8 452.9L681.4 393.5L627.8 380.7Z" fill="#001566" stroke="#001566"></path><path d="M627.8 380.7L681.4 393.5L679.8 290.4Z" fill="#0d1acd" stroke="#0d1acd"></path><path d="M765.9 278.5L738.4 219.3L718.9 221.3Z" fill="#050836" stroke="#050836"></path><path d="M741.4 306.7L675.3 265.4L679.8 290.4Z" fill="#001566" stroke="#001566"></path><path d="M718.9 221.3L738.4 219.3L722.4 179.5Z" fill="#001988" stroke="#001988"></path><path d="M449.3 0L409.2 0L501.2 46.2Z" fill="#001baa" stroke="#001baa"></path><path d="M510.7 496.8L555.8 435.8L485.3 441.8Z" fill="#1818de" stroke="#1818de"></path><path d="M560.3 444.7L576.3 471.7L593.8 427.9Z" fill="#001a99" stroke="#001a99"></path><path d="M332.2 33.1L291.2 82.3L352.2 112.4Z" fill="#001256" stroke="#001256"></path><path d="M681.4 393.5L720.9 344.6L679.8 290.4Z" fill="#1818de" stroke="#1818de"></path><path d="M751.4 130.4L697.9 85.1L721.4 179.5Z" fill="#0d1acd" stroke="#0d1acd"></path><path d="M671.4 88.2L640.4 0L606.8 65.2Z" fill="#001988" stroke="#001988"></path><path d="M751.4 130.4L721.4 179.5L722.4 179.5Z" fill="#0d1acd" stroke="#0d1acd"></path><path d="M693.8 452.8L697.8 388.5L681.4 393.5Z" fill="#0d1acd" stroke="#0d1acd"></path><path d="M681.4 393.5L697.8 388.5L720.9 344.6Z" fill="#0d1acd" stroke="#0d1acd"></path><path d="M409.2 0L332.2 33.1L352.2 112.4Z" fill="#001a99" stroke="#001a99"></path><path d="M207.1 180.4L242.1 169.5L218.1 137.1Z" fill="#001566" stroke="#001566"></path><path d="M272.6 138.1L242.1 169.5L284.7 152.4Z" fill="#001777" stroke="#001777"></path><path d="M818.4 313.6L741.4 306.7L720.9 344.6Z" fill="#001a99" stroke="#001a99"></path><path d="M720.9 344.6L741.4 306.7L679.8 290.4Z" fill="#050836" stroke="#050836"></path><path d="M780.9 215.5L744.9 178.2L738.4 219.3Z" fill="#001988" stroke="#001988"></path><path d="M738.4 219.3L744.9 178.2L722.4 179.5Z" fill="#001777" stroke="#001777"></path><path d="M423.7 527.9L485.3 441.8L416.2 441.6Z" fill="#041bbb" stroke="#041bbb"></path><path d="M423.7 527.9L510.7 496.8L485.3 441.8Z" fill="#000f46" stroke="#000f46"></path><path d="M607.3 482.9L593.8 427.9L576.3 471.7Z" fill="#001777" stroke="#001777"></path><path d="M607.3 482.9L644.8 452.9L593.8 427.9Z" fill="#001988" stroke="#001988"></path><path d="M288.6 35.2L281.7 72.1L291.2 82.3Z" fill="#000f46" stroke="#000f46"></path><path d="M291.2 82.3L241.6 73.2L272.6 138.1Z" fill="#001baa" stroke="#001baa"></path><path d="M263.7 242.3L239.2 321.6L280.2 280.5Z" fill="#001256" stroke="#001256"></path><path d="M185.6 251.6L239.2 321.6L263.7 242.3Z" fill="#050836" stroke="#050836"></path><path d="M510.7 496.8L571.8 491.7L560.3 444.7Z" fill="#041bbb" stroke="#041bbb"></path><path d="M640.4 0L507.7 -33.9L529.8 0Z" fill="#050836" stroke="#050836"></path><path d="M529.8 0L507.7 -33.9L507.3 0Z" fill="#001566" stroke="#001566"></path><path d="M507.3 0L507.7 -33.9L459.7 0Z" fill="#001baa" stroke="#001baa"></path><path d="M459.7 0L507.7 -33.9L449.3 0Z" fill="#001988" stroke="#001988"></path><path d="M449.3 0L507.7 -33.9L409.2 0Z" fill="#001baa" stroke="#001baa"></path><path d="M713.9 449.7L722.8 377.6L697.8 388.5Z" fill="#001988" stroke="#001988"></path><path d="M697.8 388.5L722.8 377.6L720.9 344.6Z" fill="#1818de" stroke="#1818de"></path><path d="M571.8 491.7L607.3 482.9L576.3 471.7Z" fill="#050836" stroke="#050836"></path><path d="M818.4 313.6L765.9 278.5L741.4 306.7Z" fill="#001777" stroke="#001777"></path><path d="M741.4 306.7L765.9 278.5L718.9 221.3Z" fill="#001baa" stroke="#001baa"></path><path d="M668.8 0L640.4 0L671.4 88.2Z" fill="#050836" stroke="#050836"></path><path d="M744.9 178.2L751.4 130.4L722.4 179.5Z" fill="#050836" stroke="#050836"></path><path d="M723.4 38.2L668.8 0L671.4 88.2Z" fill="#001988" stroke="#001988"></path><path d="M781.4 128.1L751.4 130.4L744.9 178.2Z" fill="#050836" stroke="#050836"></path><path d="M409.2 0L329.2 4.2L332.2 33.1Z" fill="#001256" stroke="#001256"></path><path d="M332.2 33.1L288.6 35.2L291.2 82.3Z" fill="#0d1acd" stroke="#0d1acd"></path><path d="M301.6 0L329.2 4.2L315.2 -49.9Z" fill="#050836" stroke="#050836"></path><path d="M213.1 415.8L301.7 448.7L321.2 393.9Z" fill="#001988" stroke="#001988"></path><path d="M321.2 393.9L301.7 448.7L394.7 425.6Z" fill="#0d1acd" stroke="#0d1acd"></path><path d="M301.6 0L288.6 35.2L332.2 33.1Z" fill="#001566" stroke="#001566"></path><path d="M218.1 137.1L242.1 169.5L272.6 138.1Z" fill="#0d1acd" stroke="#0d1acd"></path><path d="M765.9 278.5L780.9 216.4L738.4 219.3Z" fill="#001777" stroke="#001777"></path><path d="M780.9 216.4L780.9 215.5L738.4 219.3Z" fill="#001baa" stroke="#001baa"></path><path d="M218.1 137.1L272.6 138.1L241.6 73.2Z" fill="#1818de" stroke="#1818de"></path><path d="M242.1 169.5L207.1 180.4L263.7 242.3Z" fill="#001988" stroke="#001988"></path><path d="M241.6 73.2L291.2 82.3L281.7 72.1Z" fill="#050836" stroke="#050836"></path><path d="M723.4 38.2L671.4 88.2L697.9 85.1Z" fill="#001566" stroke="#001566"></path><path d="M640.4 0L668.8 0L507.7 -33.9Z" fill="#1818de" stroke="#1818de"></path><path d="M705.9 484.8L693.8 452.8L644.8 452.9Z" fill="#0d1acd" stroke="#0d1acd"></path><path d="M644.8 452.9L693.8 452.8L681.4 393.5Z" fill="#000f46" stroke="#000f46"></path><path d="M803.9 398.7L818.4 313.6L720.9 344.6Z" fill="#001566" stroke="#001566"></path><path d="M781.4 128.1L731.8 61.3L751.4 130.4Z" fill="#050836" stroke="#050836"></path><path d="M751.4 130.4L731.8 61.3L697.9 85.1Z" fill="#001baa" stroke="#001baa"></path><path d="M288.6 35.2L241.6 73.2L281.7 72.1Z" fill="#001988" stroke="#001988"></path><path d="M381.2 540L416.2 441.6L364.2 540Z" fill="#041bbb" stroke="#041bbb"></path><path d="M510.7 496.8L535.3 540L571.8 491.7Z" fill="#001988" stroke="#001988"></path><path d="M315.2 -49.9L329.2 4.2L409.2 0Z" fill="#001a99" stroke="#001a99"></path><path d="M329.2 4.2L301.6 0L332.2 33.1Z" fill="#1818de" stroke="#1818de"></path><path d="M288.6 35.2L223.6 44.1L241.6 73.2Z" fill="#001988" stroke="#001988"></path><path d="M731.8 61.3L723.4 38.2L697.9 85.1Z" fill="#000f46" stroke="#000f46"></path><path d="M165.6 241.4L185.6 251.6L207.1 180.4Z" fill="#050836" stroke="#050836"></path><path d="M207.1 180.4L185.6 251.6L263.7 242.3Z" fill="#041bbb" stroke="#041bbb"></path><path d="M239.2 321.6L211.1 376.6L307.2 348.8Z" fill="#041bbb" stroke="#041bbb"></path><path d="M422.3 540L535.3 540L510.7 496.8Z" fill="#041bbb" stroke="#041bbb"></path><path d="M571.8 491.7L562.3 543.9L607.3 482.9Z" fill="#0d1acd" stroke="#0d1acd"></path><path d="M607.3 482.9L705.9 484.8L644.8 452.9Z" fill="#050836" stroke="#050836"></path><path d="M705.9 484.8L713.9 449.7L693.8 452.8Z" fill="#050836" stroke="#050836"></path><path d="M693.8 452.8L713.9 449.7L697.8 388.5Z" fill="#050836" stroke="#050836"></path><path d="M780.9 215.5L781.4 128.1L744.9 178.2Z" fill="#001a99" stroke="#001a99"></path><path d="M731.8 61.3L792.4 0L723.4 38.2Z" fill="#001256" stroke="#001256"></path><path d="M791.9 124.4L781.4 128.1L850.5 163.5Z" fill="#001a99" stroke="#001a99"></path><path d="M535.3 540L549.8 540L571.8 491.7Z" fill="#050836" stroke="#050836"></path><path d="M549.8 540L551.7 540L571.8 491.7Z" fill="#000f46" stroke="#000f46"></path><path d="M381.2 540L422.3 540L423.7 527.9Z" fill="#001988" stroke="#001988"></path><path d="M423.7 527.9L422.3 540L510.7 496.8Z" fill="#000f46" stroke="#000f46"></path><path d="M178.6 320.6L211.1 376.6L239.2 321.6Z" fill="#0d1acd" stroke="#0d1acd"></path><path d="M535.3 540L562.3 543.9L549.8 540Z" fill="#001a99" stroke="#001a99"></path><path d="M549.8 540L562.3 543.9L551.7 540Z" fill="#001a99" stroke="#001a99"></path><path d="M551.7 540L562.3 543.9L571.8 491.7Z" fill="#001baa" stroke="#001baa"></path><path d="M422.3 540L562.3 543.9L535.3 540Z" fill="#001566" stroke="#001566"></path><path d="M850.5 163.5L781.4 128.1L780.9 215.5Z" fill="#000f46" stroke="#000f46"></path><path d="M781.4 128.1L804.9 104.3L731.8 61.3Z" fill="#000f46" stroke="#000f46"></path><path d="M161.1 124.4L180.1 156.2L218.1 137.1Z" fill="#041bbb" stroke="#041bbb"></path><path d="M218.1 137.1L180.1 156.2L207.1 180.4Z" fill="#000f46" stroke="#000f46"></path><path d="M315.2 -49.9L271.7 0L301.6 0Z" fill="#001256" stroke="#001256"></path><path d="M301.6 0L271.7 0L288.6 35.2Z" fill="#001a99" stroke="#001a99"></path><path d="M241.6 73.2L161.1 124.4L218.1 137.1Z" fill="#000f46" stroke="#000f46"></path><path d="M166.6 268.4L176.1 303.7L185.6 251.6Z" fill="#0d1acd" stroke="#0d1acd"></path><path d="M185.6 251.6L176.1 303.7L239.2 321.6Z" fill="#001777" stroke="#001777"></path><path d="M364.2 540L394.7 425.6L301.7 448.7Z" fill="#001a99" stroke="#001a99"></path><path d="M364.2 540L416.2 441.6L394.7 425.6Z" fill="#001a99" stroke="#001a99"></path><path d="M244.6 577.9L693.4 569.9L562.3 543.9Z" fill="#001777" stroke="#001777"></path><path d="M176.1 303.7L178.6 320.6L239.2 321.6Z" fill="#001777" stroke="#001777"></path><path d="M180.1 156.2L165.6 241.4L207.1 180.4Z" fill="#1818de" stroke="#1818de"></path><path d="M123.1 334.5L174.6 369.7L178.6 320.6Z" fill="#001988" stroke="#001988"></path><path d="M165.6 241.4L166.6 268.4L185.6 251.6Z" fill="#001256" stroke="#001256"></path><path d="M708.8 540L705.9 484.8L607.3 482.9Z" fill="#001a99" stroke="#001a99"></path><path d="M803.9 398.7L720.9 344.6L722.8 377.6Z" fill="#041bbb" stroke="#041bbb"></path><path d="M248.6 474.8L276.7 484.9L301.7 448.7Z" fill="#001a99" stroke="#001a99"></path><path d="M306.6 540L364.2 540L301.7 448.7Z" fill="#000f46" stroke="#000f46"></path><path d="M244.6 577.9L562.3 543.9L422.3 540Z" fill="#001a99" stroke="#001a99"></path><path d="M242.6 0L223.6 44.1L288.6 35.2Z" fill="#001988" stroke="#001988"></path><path d="M174.6 369.7L213.1 415.8L211.1 376.6Z" fill="#050836" stroke="#050836"></path><path d="M211.1 376.6L213.1 415.8L321.2 393.9Z" fill="#1818de" stroke="#1818de"></path><path d="M764.4 434.6L722.8 377.6L713.9 449.7Z" fill="#001a99" stroke="#001a99"></path><path d="M765.9 278.5L826.9 273.6L780.9 216.4Z" fill="#0d1acd" stroke="#0d1acd"></path><path d="M780.9 216.4L851.5 213.5L780.9 215.5Z" fill="#001566" stroke="#001566"></path><path d="M507.7 -33.9L315.2 -49.9L409.2 0Z" fill="#0d1acd" stroke="#0d1acd"></path><path d="M271.7 0L242.6 0L288.6 35.2Z" fill="#001777" stroke="#001777"></path><path d="M818.4 313.6L826.9 273.6L765.9 278.5Z" fill="#001256" stroke="#001256"></path><path d="M790.4 489.8L764.4 434.6L713.9 449.7Z" fill="#1818de" stroke="#1818de"></path><path d="M850.5 163.5L804.9 104.3L791.9 124.4Z" fill="#001566" stroke="#001566"></path><path d="M791.9 124.4L804.9 104.3L781.4 128.1Z" fill="#000f46" stroke="#000f46"></path><path d="M213.1 415.8L248.6 474.8L301.7 448.7Z" fill="#001a99" stroke="#001a99"></path><path d="M276.7 484.9L306.6 540L301.7 448.7Z" fill="#001a99" stroke="#001a99"></path><path d="M315.2 -49.9L242.6 0L271.7 0Z" fill="#001988" stroke="#001988"></path><path d="M315.2 -49.9L241.2 0L242.6 0Z" fill="#050836" stroke="#050836"></path><path d="M242.6 0L241.2 0L223.6 44.1Z" fill="#1818de" stroke="#1818de"></path><path d="M178.6 320.6L174.6 369.7L211.1 376.6Z" fill="#001988" stroke="#001988"></path><path d="M213.1 415.8L222.2 475.9L248.6 474.8Z" fill="#001256" stroke="#001256"></path><path d="M123.1 334.5L178.6 320.6L176.1 303.7Z" fill="#001777" stroke="#001777"></path><path d="M141.1 120.3L161.1 124.4L136.1 102.1Z" fill="#001a99" stroke="#001a99"></path><path d="M223.6 44.1L161.1 124.4L241.6 73.2Z" fill="#0d1acd" stroke="#0d1acd"></path><path d="M180.1 156.2L113.6 252.5L165.6 241.4Z" fill="#001a99" stroke="#001a99"></path><path d="M764.4 434.6L803.9 398.7L722.8 377.6Z" fill="#001777" stroke="#001777"></path><path d="M853.4 225.3L780.9 216.4L826.9 273.6Z" fill="#050836" stroke="#050836"></path><path d="M291.1 540L306.6 540L276.7 484.9Z" fill="#0d1acd" stroke="#0d1acd"></path><path d="M244.6 577.9L422.3 540L381.2 540Z" fill="#1818de" stroke="#1818de"></path><path d="M853.4 225.3L826.9 273.6L870.4 257.4Z" fill="#001777" stroke="#001777"></path><path d="M853.4 225.3L851.5 213.5L780.9 216.4Z" fill="#001a99" stroke="#001a99"></path><path d="M870.4 257.4L826.9 273.6L895.4 306.5Z" fill="#050836" stroke="#050836"></path><path d="M189.1 477.7L222.2 475.9L213.1 415.8Z" fill="#0d1acd" stroke="#0d1acd"></path><path d="M255.1 532.9L291.1 540L276.7 484.9Z" fill="#001566" stroke="#001566"></path><path d="M255.1 532.9L276.7 484.9L248.6 474.8Z" fill="#001777" stroke="#001777"></path><path d="M244.6 577.9L381.2 540L364.2 540Z" fill="#001a99" stroke="#001a99"></path><path d="M900.9 194.5L850.5 163.5L851.5 213.5Z" fill="#001988" stroke="#001988"></path><path d="M851.5 213.5L850.5 163.5L780.9 215.5Z" fill="#001988" stroke="#001988"></path><path d="M136.1 102.1L161.1 124.4L223.6 44.1Z" fill="#001baa" stroke="#001baa"></path><path d="M161.1 124.4L141.1 120.3L180.1 156.2Z" fill="#041bbb" stroke="#041bbb"></path><path d="M165.6 241.4L113.6 252.5L166.6 268.4Z" fill="#001777" stroke="#001777"></path><path d="M166.6 268.4L123.1 334.5L176.1 303.7Z" fill="#001566" stroke="#001566"></path><path d="M693.4 569.9L708.8 540L607.3 482.9Z" fill="#000f46" stroke="#000f46"></path><path d="M705.9 484.8L790.4 489.8L713.9 449.7Z" fill="#001777" stroke="#001777"></path><path d="M849.9 465.9L854.9 377.5L803.9 398.7Z" fill="#0d1acd" stroke="#0d1acd"></path><path d="M895.4 306.5L826.9 273.6L818.4 313.6Z" fill="#001777" stroke="#001777"></path><path d="M853.4 225.3L883.5 230.4L851.5 213.5Z" fill="#001988" stroke="#001988"></path><path d="M850.5 163.5L839.5 84.1L804.9 104.3Z" fill="#050836" stroke="#050836"></path><path d="M804.9 104.3L792.4 0L731.8 61.3Z" fill="#001baa" stroke="#001baa"></path><path d="M723.4 38.2L792.4 0L668.8 0Z" fill="#001777" stroke="#001777"></path><path d="M888.4 105.1L839.5 84.1L850.5 163.5Z" fill="#041bbb" stroke="#041bbb"></path><path d="M141.1 120.3L113.6 252.5L180.1 156.2Z" fill="#1818de" stroke="#1818de"></path><path d="M119.5 429.8L189.1 477.7L213.1 415.8Z" fill="#1818de" stroke="#1818de"></path><path d="M222.2 475.9L255.1 532.9L248.6 474.8Z" fill="#001566" stroke="#001566"></path><path d="M186.1 0L136.1 102.1L223.6 44.1Z" fill="#001777" stroke="#001777"></path><path d="M141.1 120.3L19.5 212.4L113.6 252.5Z" fill="#001777" stroke="#001777"></path><path d="M801.9 0L792.4 0L804.9 104.3Z" fill="#001566" stroke="#001566"></path><path d="M668.8 0L960 -36.9L507.7 -33.9Z" fill="#001a99" stroke="#001a99"></path><path d="M105.1 326.5L123.1 334.5L96.5 315.5Z" fill="#000f46" stroke="#000f46"></path><path d="M215.6 540L257.7 540L255.1 532.9Z" fill="#0d1acd" stroke="#0d1acd"></path><path d="M215.6 540L255.1 532.9L222.2 475.9Z" fill="#001988" stroke="#001988"></path><path d="M255.1 532.9L257.7 540L291.1 540Z" fill="#001988" stroke="#001988"></path><path d="M244.6 577.9L364.2 540L306.6 540Z" fill="#001777" stroke="#001777"></path><path d="M315.2 -49.9L186.1 0L241.2 0Z" fill="#001baa" stroke="#001baa"></path><path d="M241.2 0L186.1 0L223.6 44.1Z" fill="#001baa" stroke="#001baa"></path><path d="M119.5 429.8L213.1 415.8L174.6 369.7Z" fill="#000f46" stroke="#000f46"></path><path d="M843.9 28.1L801.9 0L804.9 104.3Z" fill="#0d1acd" stroke="#0d1acd"></path><path d="M792.4 0L960 -36.9L668.8 0Z" fill="#000f46" stroke="#000f46"></path><path d="M849.9 465.9L803.9 398.7L764.4 434.6Z" fill="#000f46" stroke="#000f46"></path><path d="M803.9 398.7L854.9 377.5L818.4 313.6Z" fill="#0d1acd" stroke="#0d1acd"></path><path d="M562.3 543.9L693.4 569.9L607.3 482.9Z" fill="#1818de" stroke="#1818de"></path><path d="M763.4 540L790.4 489.8L705.9 484.8Z" fill="#0d1acd" stroke="#0d1acd"></path><path d="M244.6 577.9L306.6 540L291.1 540Z" fill="#001256" stroke="#001256"></path><path d="M960 239.3L883.5 230.4L960 256.4Z" fill="#001baa" stroke="#001baa"></path><path d="M870.4 257.4L883.5 230.4L853.4 225.3Z" fill="#001988" stroke="#001988"></path><path d="M748.9 543.9L705.9 484.8L708.8 540Z" fill="#050836" stroke="#050836"></path><path d="M96.5 315.5L123.1 334.5L166.6 268.4Z" fill="#050836" stroke="#050836"></path><path d="M123.1 334.5L105.6 358.5L174.6 369.7Z" fill="#001566" stroke="#001566"></path><path d="M693.4 569.9L748.9 543.9L708.8 540Z" fill="#001777" stroke="#001777"></path><path d="M34.5 272.6L96.5 315.5L113.6 252.5Z" fill="#001a99" stroke="#001a99"></path><path d="M113.6 252.5L96.5 315.5L166.6 268.4Z" fill="#1818de" stroke="#1818de"></path><path d="M105.1 326.5L104.1 346.6L123.1 334.5Z" fill="#001a99" stroke="#001a99"></path><path d="M96.5 315.5L104.1 346.6L105.1 326.5Z" fill="#001a99" stroke="#001a99"></path><path d="M0 401.8L105.6 358.5L104.1 346.6Z" fill="#1818de" stroke="#1818de"></path><path d="M104.1 346.6L105.6 358.5L123.1 334.5Z" fill="#001a99" stroke="#001a99"></path><path d="M766.4 564.9L763.4 540L748.9 543.9Z" fill="#001566" stroke="#001566"></path><path d="M748.9 543.9L763.4 540L705.9 484.8Z" fill="#050836" stroke="#050836"></path><path d="M790.4 489.8L849.9 465.9L764.4 434.6Z" fill="#001256" stroke="#001256"></path><path d="M888.4 105.1L843.9 28.1L839.5 84.1Z" fill="#1818de" stroke="#1818de"></path><path d="M839.5 84.1L843.9 28.1L804.9 104.3Z" fill="#001a99" stroke="#001a99"></path><path d="M960 336.6L895.4 306.5L960 344.8Z" fill="#001256" stroke="#001256"></path><path d="M854.9 377.5L895.4 306.5L818.4 313.6Z" fill="#041bbb" stroke="#041bbb"></path><path d="M960 239.3L900.9 194.5L883.5 230.4Z" fill="#050836" stroke="#050836"></path><path d="M883.5 230.4L900.9 194.5L851.5 213.5Z" fill="#001777" stroke="#001777"></path><path d="M189.1 477.7L215.6 540L222.2 475.9Z" fill="#001566" stroke="#001566"></path><path d="M257.7 540L244.6 577.9L291.1 540Z" fill="#001566" stroke="#001566"></path><path d="M143.6 522.8L215.6 540L189.1 477.7Z" fill="#001baa" stroke="#001baa"></path><path d="M936.5 152.3L888.4 105.1L850.5 163.5Z" fill="#1818de" stroke="#1818de"></path><path d="M885.9 0L838.5 0L843.9 28.1Z" fill="#041bbb" stroke="#041bbb"></path><path d="M843.9 28.1L838.5 0L801.9 0Z" fill="#041bbb" stroke="#041bbb"></path><path d="M801.9 0L960 -36.9L792.4 0Z" fill="#041bbb" stroke="#041bbb"></path><path d="M45.1 439.9L119.5 429.8L105.6 358.5Z" fill="#050836" stroke="#050836"></path><path d="M105.6 358.5L119.5 429.8L174.6 369.7Z" fill="#001256" stroke="#001256"></path><path d="M145.5 540L244.6 577.9L215.6 540Z" fill="#041bbb" stroke="#041bbb"></path><path d="M215.6 540L244.6 577.9L257.7 540Z" fill="#000f46" stroke="#000f46"></path><path d="M843.5 540L849.9 465.9L790.4 489.8Z" fill="#041bbb" stroke="#041bbb"></path><path d="M186.1 0L137.1 0L136.1 102.1Z" fill="#001988" stroke="#001988"></path><path d="M136.1 102.1L88.6 76.3L141.1 120.3Z" fill="#001a99" stroke="#001a99"></path><path d="M315.2 -49.9L137.1 0L186.1 0Z" fill="#001566" stroke="#001566"></path><path d="M693.4 569.9L766.4 564.9L748.9 543.9Z" fill="#041bbb" stroke="#041bbb"></path><path d="M763.4 540L806.9 540L790.4 489.8Z" fill="#001a99" stroke="#001a99"></path><path d="M88.1 31.2L88.6 76.3L136.1 102.1Z" fill="#041bbb" stroke="#041bbb"></path><path d="M766.4 564.9L806.9 540L763.4 540Z" fill="#1818de" stroke="#1818de"></path><path d="M315.2 -49.9L107.5 0L137.1 0Z" fill="#000f46" stroke="#000f46"></path><path d="M137.1 0L88.1 31.2L136.1 102.1Z" fill="#001777" stroke="#001777"></path><path d="M119.5 429.8L143.6 522.8L189.1 477.7Z" fill="#001baa" stroke="#001baa"></path><path d="M900.9 194.5L936.5 152.3L850.5 163.5Z" fill="#001988" stroke="#001988"></path><path d="M888.4 105.1L885.9 0L843.9 28.1Z" fill="#001988" stroke="#001988"></path><path d="M960 199.5L936.5 152.3L900.9 194.5Z" fill="#001777" stroke="#001777"></path><path d="M107.5 0L88.1 31.2L137.1 0Z" fill="#001777" stroke="#001777"></path><path d="M954.5 58.2L885.9 0L888.4 105.1Z" fill="#0d1acd" stroke="#0d1acd"></path><path d="M838.5 0L960 -36.9L801.9 0Z" fill="#1818de" stroke="#1818de"></path><path d="M19.5 212.4L34.5 272.6L113.6 252.5Z" fill="#001566" stroke="#001566"></path><path d="M96.5 315.5L16.1 302.5L104.1 346.6Z" fill="#001566" stroke="#001566"></path><path d="M101.1 519.8L136.6 527.9L143.6 522.8Z" fill="#001baa" stroke="#001baa"></path><path d="M19.5 212.4L141.1 120.3L9.5 132.3Z" fill="#001777" stroke="#001777"></path><path d="M101.1 519.8L143.6 522.8L119.5 429.8Z" fill="#001baa" stroke="#001baa"></path><path d="M143.6 522.8L145.5 540L215.6 540Z" fill="#001777" stroke="#001777"></path><path d="M136.6 527.9L145.5 540L143.6 522.8Z" fill="#001777" stroke="#001777"></path><path d="M921.5 474.9L904.4 449.8L849.9 465.9Z" fill="#041bbb" stroke="#041bbb"></path><path d="M849.9 465.9L904.4 449.8L854.9 377.5Z" fill="#0d1acd" stroke="#0d1acd"></path><path d="M960 256.4L883.5 230.4L870.4 257.4Z" fill="#001777" stroke="#001777"></path><path d="M766.4 564.9L843.5 540L806.9 540Z" fill="#041bbb" stroke="#041bbb"></path><path d="M806.9 540L843.5 540L790.4 489.8Z" fill="#041bbb" stroke="#041bbb"></path><path d="M0 89.2L62.1 60.3L0 49.1Z" fill="#001a99" stroke="#001a99"></path><path d="M88.1 31.2L62.1 60.3L88.6 76.3Z" fill="#0d1acd" stroke="#0d1acd"></path><path d="M960 256.4L870.4 257.4L895.4 306.5Z" fill="#001a99" stroke="#001a99"></path><path d="M960 336.6L960 256.4L895.4 306.5Z" fill="#050836" stroke="#050836"></path><path d="M960 239.3L960 199.5L900.9 194.5Z" fill="#0d1acd" stroke="#0d1acd"></path><path d="M936.5 152.3L954.5 58.2L888.4 105.1Z" fill="#000f46" stroke="#000f46"></path><path d="M960 199.5L960 163.5L936.5 152.3Z" fill="#041bbb" stroke="#041bbb"></path><path d="M9.5 132.3L141.1 120.3L88.6 76.3Z" fill="#001a99" stroke="#001a99"></path><path d="M960 163.5L960 156.2L936.5 152.3Z" fill="#001777" stroke="#001777"></path><path d="M960 344.8L895.4 306.5L854.9 377.5Z" fill="#041bbb" stroke="#041bbb"></path><path d="M960 419.7L960 344.8L854.9 377.5Z" fill="#000f46" stroke="#000f46"></path><path d="M5.5 307.5L16.1 302.5L0 287.4Z" fill="#050836" stroke="#050836"></path><path d="M34.5 272.6L16.1 302.5L96.5 315.5Z" fill="#001777" stroke="#001777"></path><path d="M65.6 489.7L101.1 519.8L119.5 429.8Z" fill="#041bbb" stroke="#041bbb"></path><path d="M136.6 527.9L101.1 519.8L145.5 540Z" fill="#0d1acd" stroke="#0d1acd"></path><path d="M897.4 540L921.5 474.9L849.9 465.9Z" fill="#0d1acd" stroke="#0d1acd"></path><path d="M904.4 449.8L960 419.7L854.9 377.5Z" fill="#001256" stroke="#001256"></path><path d="M0 401.8L45.1 439.9L105.6 358.5Z" fill="#001256" stroke="#001256"></path><path d="M0 287.4L16.1 302.5L34.5 272.6Z" fill="#000f46" stroke="#000f46"></path><path d="M16.1 302.5L0 401.8L104.1 346.6Z" fill="#001baa" stroke="#001baa"></path><path d="M19.5 212.4L0 251.5L34.5 272.6Z" fill="#001566" stroke="#001566"></path><path d="M0 189.3L0 251.5L19.5 212.4Z" fill="#0d1acd" stroke="#0d1acd"></path><path d="M62.1 60.3L9.5 132.3L88.6 76.3Z" fill="#001988" stroke="#001988"></path><path d="M9.5 132.3L0 189.3L19.5 212.4Z" fill="#041bbb" stroke="#041bbb"></path><path d="M0 251.5L0 287.4L34.5 272.6Z" fill="#001256" stroke="#001256"></path><path d="M960 156.2L954.5 58.2L936.5 152.3Z" fill="#000f46" stroke="#000f46"></path><path d="M997.5 395.7L981.5 320.6L960 344.8Z" fill="#000f46" stroke="#000f46"></path><path d="M960 344.8L981.5 320.6L960 336.6Z" fill="#001777" stroke="#001777"></path><path d="M960 336.6L981.5 320.6L960 256.4Z" fill="#0d1acd" stroke="#0d1acd"></path><path d="M960 256.4L981.5 320.6L960 239.3Z" fill="#001a99" stroke="#001a99"></path><path d="M960 239.3L981.5 320.6L960 199.5Z" fill="#000f46" stroke="#000f46"></path><path d="M960 199.5L981.5 320.6L960 163.5Z" fill="#0d1acd" stroke="#0d1acd"></path><path d="M960 163.5L981.5 320.6L960 156.2Z" fill="#001777" stroke="#001777"></path><path d="M960 156.2L960 0L954.5 58.2Z" fill="#001777" stroke="#001777"></path><path d="M45.1 439.9L65.6 489.7L119.5 429.8Z" fill="#001566" stroke="#001566"></path><path d="M0 287.4L0 306.5L5.5 307.5Z" fill="#001baa" stroke="#001baa"></path><path d="M5.5 307.5L0 401.8L16.1 302.5Z" fill="#001256" stroke="#001256"></path><path d="M0 306.5L0 308.6L5.5 307.5Z" fill="#050836" stroke="#050836"></path><path d="M954.5 58.2L931.9 0.2L885.9 0Z" fill="#001777" stroke="#001777"></path><path d="M885.9 0L960 -36.9L838.5 0Z" fill="#001566" stroke="#001566"></path><path d="M507.7 -33.9L960 -36.9L315.2 -49.9Z" fill="#001baa" stroke="#001baa"></path><path d="M938.5 476.8L960 419.7L904.4 449.8Z" fill="#001256" stroke="#001256"></path><path d="M843.5 540L897.4 540L849.9 465.9Z" fill="#001566" stroke="#001566"></path><path d="M921.5 474.9L938.5 476.8L904.4 449.8Z" fill="#001a99" stroke="#001a99"></path><path d="M766.4 564.9L897.4 540L843.5 540Z" fill="#0d1acd" stroke="#0d1acd"></path><path d="M941.9 528.8L938.5 476.8L921.5 474.9Z" fill="#001777" stroke="#001777"></path><path d="M62.1 60.3L0 89.2L9.5 132.3Z" fill="#1818de" stroke="#1818de"></path><path d="M9.5 132.3L-25.5 95.1L0 189.3Z" fill="#1818de" stroke="#1818de"></path><path d="M29.5 9.2L62.1 60.3L88.1 31.2Z" fill="#000f46" stroke="#000f46"></path><path d="M0 0L29.5 9.2L107.5 0Z" fill="#001566" stroke="#001566"></path><path d="M107.5 0L29.5 9.2L88.1 31.2Z" fill="#1818de" stroke="#1818de"></path><path d="M766.4 564.9L912.9 540L897.4 540Z" fill="#001988" stroke="#001988"></path><path d="M897.4 540L912.9 540L921.5 474.9Z" fill="#0d1acd" stroke="#0d1acd"></path><path d="M0 308.6L0 401.8L5.5 307.5Z" fill="#001566" stroke="#001566"></path><path d="M45.1 439.9L0 466.7L65.6 489.7Z" fill="#000f46" stroke="#000f46"></path><path d="M0 540L66.1 540L65.6 489.7Z" fill="#001777" stroke="#001777"></path><path d="M65.6 489.7L66.1 540L101.1 519.8Z" fill="#0d1acd" stroke="#0d1acd"></path><path d="M101.1 519.8L66.1 540L145.5 540Z" fill="#001256" stroke="#001256"></path><path d="M145.5 540L0 587.9L244.6 577.9Z" fill="#001566" stroke="#001566"></path><path d="M981.5 320.6L960 0L960 156.2Z" fill="#001988" stroke="#001988"></path><path d="M954.5 58.2L960 0L931.9 0.2Z" fill="#001256" stroke="#001256"></path><path d="M931.9 0.2L960 -36.9L885.9 0Z" fill="#001988" stroke="#001988"></path><path d="M29.5 9.2L0 49.1L62.1 60.3Z" fill="#000f46" stroke="#000f46"></path><path d="M960 419.7L997.5 395.7L960 344.8Z" fill="#001988" stroke="#001988"></path><path d="M981.5 320.6L997.5 395.7L960 0Z" fill="#041bbb" stroke="#041bbb"></path><path d="M960 496.9L997.5 395.7L960 419.7Z" fill="#001baa" stroke="#001baa"></path><path d="M960 496.9L960 419.7L938.5 476.8Z" fill="#001566" stroke="#001566"></path><path d="M941.9 528.8L960 496.9L938.5 476.8Z" fill="#000f46" stroke="#000f46"></path><path d="M0 49.1L-25.5 95.1L0 89.2Z" fill="#001988" stroke="#001988"></path><path d="M0 89.2L-25.5 95.1L9.5 132.3Z" fill="#0d1acd" stroke="#0d1acd"></path><path d="M0 189.3L-48.5 301.7L0 251.5Z" fill="#001777" stroke="#001777"></path><path d="M0 251.5L-48.5 301.7L0 287.4Z" fill="#041bbb" stroke="#041bbb"></path><path d="M0 287.4L-48.5 301.7L0 306.5Z" fill="#001988" stroke="#001988"></path><path d="M0 306.5L-48.5 301.7L0 308.6Z" fill="#001baa" stroke="#001baa"></path><path d="M0 308.6L-48.5 301.7L0 401.8Z" fill="#041bbb" stroke="#041bbb"></path><path d="M912.9 540L941.9 528.8L921.5 474.9Z" fill="#050836" stroke="#050836"></path><path d="M997.5 395.7L960 -36.9L960 0Z" fill="#001566" stroke="#001566"></path><path d="M960 0L960 -36.9L931.9 0.2Z" fill="#041bbb" stroke="#041bbb"></path><path d="M-48.5 301.7L0 466.7L0 401.8Z" fill="#050836" stroke="#050836"></path><path d="M0 401.8L0 466.7L45.1 439.9Z" fill="#000f46" stroke="#000f46"></path><path d="M-25.5 95.1L-48.5 301.7L0 189.3Z" fill="#001566" stroke="#001566"></path><path d="M29.5 9.2L0 0L0 49.1Z" fill="#000f46" stroke="#000f46"></path><path d="M0 49.1L0 0L-25.5 95.1Z" fill="#050836" stroke="#050836"></path><path d="M315.2 -49.9L0 0L107.5 0Z" fill="#1818de" stroke="#1818de"></path><path d="M766.4 564.9L960 540L912.9 540Z" fill="#000f46" stroke="#000f46"></path><path d="M912.9 540L960 540L941.9 528.8Z" fill="#001988" stroke="#001988"></path><path d="M941.9 528.8L960 540L960 496.9Z" fill="#001566" stroke="#001566"></path><path d="M960 496.9L960 540L997.5 395.7Z" fill="#001988" stroke="#001988"></path><path d="M-49.5 589.9L0 540L0 466.7Z" fill="#001a99" stroke="#001a99"></path><path d="M0 466.7L0 540L65.6 489.7Z" fill="#050836" stroke="#050836"></path><path d="M66.1 540L0 587.9L145.5 540Z" fill="#001566" stroke="#001566"></path><path d="M-49.5 589.9L0 587.9L0 540Z" fill="#001777" stroke="#001777"></path><path d="M0 540L0 587.9L66.1 540Z" fill="#001988" stroke="#001988"></path><path d="M244.6 577.9L0 587.9L693.4 569.9Z" fill="#001988" stroke="#001988"></path><path d="M-48.5 301.7L-49.5 589.9L0 466.7Z" fill="#0d1acd" stroke="#0d1acd"></path><path d="M0 587.9L-49.5 589.9L693.4 569.9Z" fill="#001777" stroke="#001777"></path></g></svg>