<svg id="visual" viewBox="0 0 960 540" width="960" height="540" xmlns="http://www.w3.org/2000/svg" xmlns:xlink="http://www.w3.org/1999/xlink" version="1.1"><rect x="0" y="0" width="960" height="540" fill="#000033"></rect><path d="M0 168L8.8 174.2C17.7 180.3 35.3 192.7 53.2 211.3C71 230 89 255 106.8 259.7C124.7 264.3 142.3 248.7 160 234.2C177.7 219.7 195.3 206.3 213.2 193.7C231 181 249 169 266.8 172.7C284.7 176.3 302.3 195.7 320 212.3C337.7 229 355.3 243 373.2 265.8C391 288.7 409 320.3 426.8 340.5C444.7 360.7 462.3 369.3 480 372.8C497.7 376.3 515.3 374.7 533.2 371C551 367.3 569 361.7 586.8 358.2C604.7 354.7 622.3 353.3 640 335.2C657.7 317 675.3 282 693.2 254.5C711 227 729 207 746.8 202.7C764.7 198.3 782.3 209.7 800 243.2C817.7 276.7 835.3 332.3 853.2 343.5C871 354.7 889 321.3 906.8 289C924.7 256.7 942.3 225.3 951.2 209.7L960 194L960 0L951.2 0C942.3 0 924.7 0 906.8 0C889 0 871 0 853.2 0C835.3 0 817.7 0 800 0C782.3 0 764.7 0 746.8 0C729 0 711 0 693.2 0C675.3 0 657.7 0 640 0C622.3 0 604.7 0 586.8 0C569 0 551 0 533.2 0C515.3 0 497.7 0 480 0C462.3 0 444.7 0 426.8 0C409 0 391 0 373.2 0C355.3 0 337.7 0 320 0C302.3 0 284.7 0 266.8 0C249 0 231 0 213.2 0C195.3 0 177.7 0 160 0C142.3 0 124.7 0 106.8 0C89 0 71 0 53.2 0C35.3 0 17.7 0 8.8 0L0 0Z" fill="#1f00ff" stroke-linecap="round" stroke-linejoin="miter"></path></svg>