<svg id="visual" viewBox="0 0 540 960" width="540" height="960" xmlns="http://www.w3.org/2000/svg" xmlns:xlink="http://www.w3.org/1999/xlink" version="1.1"><rect x="0" y="0" width="540" height="960" fill="#000033"></rect><path d="M0 445L11.3 438.8C22.7 432.7 45.3 420.3 67.8 440.8C90.3 461.3 112.7 514.7 135.2 523.2C157.7 531.7 180.3 495.3 202.8 490.8C225.3 486.3 247.7 513.7 270.2 529.5C292.7 545.3 315.3 549.7 337.8 552C360.3 554.3 382.7 554.7 405.2 526.2C427.7 497.7 450.3 440.3 472.8 423C495.3 405.7 517.7 428.3 528.8 439.7L540 451L540 961L528.8 961C517.7 961 495.3 961 472.8 961C450.3 961 427.7 961 405.2 961C382.7 961 360.3 961 337.8 961C315.3 961 292.7 961 270.2 961C247.7 961 225.3 961 202.8 961C180.3 961 157.7 961 135.2 961C112.7 961 90.3 961 67.8 961C45.3 961 22.7 961 11.3 961L0 961Z" fill="#1f00ff" stroke-linecap="round" stroke-linejoin="miter"></path></svg>