<svg id="visual" viewBox="0 0 960 540" width="960" height="540" xmlns="http://www.w3.org/2000/svg" xmlns:xlink="http://www.w3.org/1999/xlink" version="1.1"><rect x="0" y="0" width="960" height="540" fill="#000033"></rect><path d="M0 370L8.8 363.8C17.7 357.7 35.3 345.3 53.2 326.7C71 308 89 283 106.8 278.3C124.7 273.7 142.3 289.3 160 303.8C177.7 318.3 195.3 331.7 213.2 344.3C231 357 249 369 266.8 365.3C284.7 361.7 302.3 342.3 320 325.7C337.7 309 355.3 295 373.2 272.2C391 249.3 409 217.7 426.8 197.5C444.7 177.3 462.3 168.7 480 165.2C497.7 161.7 515.3 163.3 533.2 167C551 170.7 569 176.3 586.8 179.8C604.7 183.3 622.3 184.7 640 202.8C657.7 221 675.3 256 693.2 283.5C711 311 729 331 746.8 335.3C764.7 339.7 782.3 328.3 800 294.8C817.7 261.3 835.3 205.7 853.2 194.5C871 183.3 889 216.7 906.8 249C924.7 281.3 942.3 312.7 951.2 328.3L960 344L960 541L951.2 541C942.3 541 924.7 541 906.8 541C889 541 871 541 853.2 541C835.3 541 817.7 541 800 541C782.3 541 764.7 541 746.8 541C729 541 711 541 693.2 541C675.3 541 657.7 541 640 541C622.3 541 604.7 541 586.8 541C569 541 551 541 533.2 541C515.3 541 497.7 541 480 541C462.3 541 444.7 541 426.8 541C409 541 391 541 373.2 541C355.3 541 337.7 541 320 541C302.3 541 284.7 541 266.8 541C249 541 231 541 213.2 541C195.3 541 177.7 541 160 541C142.3 541 124.7 541 106.8 541C89 541 71 541 53.2 541C35.3 541 17.7 541 8.8 541L0 541Z" fill="#1f00ff" stroke-linecap="round" stroke-linejoin="miter"></path></svg>