<svg id="visual" viewBox="0 0 960 540" width="960" height="540" xmlns="http://www.w3.org/2000/svg" xmlns:xlink="http://www.w3.org/1999/xlink" version="1.1"><rect x="0" y="0" width="960" height="540" fill="#000033"></rect><path d="M477 0L490.3 8.2C503.7 16.3 530.3 32.7 519.5 49C508.7 65.3 460.3 81.7 437.2 98C414 114.3 416 130.7 434 147C452 163.3 486 179.7 500.8 196C515.7 212.3 511.3 228.7 509.5 245.2C507.7 261.7 508.3 278.3 518 294.8C527.7 311.3 546.3 327.7 547.5 344C548.7 360.3 532.3 376.7 523.5 393C514.7 409.3 513.3 425.7 514.5 442C515.7 458.3 519.3 474.7 502.2 491C485 507.3 447 523.7 428 531.8L409 540L0 540L0 531.8C0 523.7 0 507.3 0 491C0 474.7 0 458.3 0 442C0 425.7 0 409.3 0 393C0 376.7 0 360.3 0 344C0 327.7 0 311.3 0 294.8C0 278.3 0 261.7 0 245.2C0 228.7 0 212.3 0 196C0 179.7 0 163.3 0 147C0 130.7 0 114.3 0 98C0 81.7 0 65.3 0 49C0 32.7 0 16.3 0 8.2L0 0Z" fill="#1f00ff" stroke-linecap="round" stroke-linejoin="miter"></path></svg>