<svg id="visual" viewBox="0 0 540 960" width="540" height="960" xmlns="http://www.w3.org/2000/svg" xmlns:xlink="http://www.w3.org/1999/xlink" version="1.1"><rect x="0" y="0" width="540" height="960" fill="#000033"></rect><path d="M162 0L166.5 14.5C171 29 180 58 176.3 87.2C172.7 116.3 156.3 145.7 148.5 174.8C140.7 204 141.3 233 147.3 262C153.3 291 164.7 320 169.7 349C174.7 378 173.3 407 172.8 436.2C172.3 465.3 172.7 494.7 175.8 523.8C179 553 185 582 185.3 611C185.7 640 180.3 669 177.3 698C174.3 727 173.7 756 174 785.2C174.3 814.3 175.7 843.7 170 872.8C164.3 902 151.7 931 145.3 945.5L139 960L0 960L0 945.5C0 931 0 902 0 872.8C0 843.7 0 814.3 0 785.2C0 756 0 727 0 698C0 669 0 640 0 611C0 582 0 553 0 523.8C0 494.7 0 465.3 0 436.2C0 407 0 378 0 349C0 320 0 291 0 262C0 233 0 204 0 174.8C0 145.7 0 116.3 0 87.2C0 58 0 29 0 14.5L0 0Z" fill="#1f00ff" stroke-linecap="round" stroke-linejoin="miter"></path></svg>