<svg id="visual" viewBox="0 0 540 960" width="540" height="960" xmlns="http://www.w3.org/2000/svg" xmlns:xlink="http://www.w3.org/1999/xlink" version="1.1"><rect x="0" y="0" width="540" height="960" fill="#000033"></rect><path d="M248 0L255.5 10.7C263 21.3 278 42.7 281.7 64C285.3 85.3 277.7 106.7 269.7 128C261.7 149.3 253.3 170.7 251.3 192C249.3 213.3 253.7 234.7 253.2 256C252.7 277.3 247.3 298.7 241.8 320C236.3 341.3 230.7 362.7 240.8 384C251 405.3 277 426.7 282.3 448C287.7 469.3 272.3 490.7 274.3 512C276.3 533.3 295.7 554.7 289.8 576C284 597.3 253 618.7 245.2 640C237.3 661.3 252.7 682.7 254.7 704C256.7 725.3 245.3 746.7 251.5 768C257.7 789.3 281.3 810.7 289.3 832C297.3 853.3 289.7 874.7 285.2 896C280.7 917.3 279.3 938.7 278.7 949.3L278 960L0 960L0 949.3C0 938.7 0 917.3 0 896C0 874.7 0 853.3 0 832C0 810.7 0 789.3 0 768C0 746.7 0 725.3 0 704C0 682.7 0 661.3 0 640C0 618.7 0 597.3 0 576C0 554.7 0 533.3 0 512C0 490.7 0 469.3 0 448C0 426.7 0 405.3 0 384C0 362.7 0 341.3 0 320C0 298.7 0 277.3 0 256C0 234.7 0 213.3 0 192C0 170.7 0 149.3 0 128C0 106.7 0 85.3 0 64C0 42.7 0 21.3 0 10.7L0 0Z" fill="#1f00ff" stroke-linecap="round" stroke-linejoin="miter"></path></svg>