<svg id="visual" viewBox="0 0 540 960" width="540" height="960" xmlns="http://www.w3.org/2000/svg" xmlns:xlink="http://www.w3.org/1999/xlink" version="1.1"><rect x="0" y="0" width="540" height="960" fill="#000221"></rect><path d="M0 196L23 196L23 66L47 66L47 365L70 365L70 454L94 454L94 343L117 343L117 64L141 64L141 60L164 60L164 392L188 392L188 86L211 86L211 69L235 69L235 32L258 32L258 208L282 208L282 132L305 132L305 228L329 228L329 400L352 400L352 447L376 447L376 53L399 53L399 394L423 394L423 104L446 104L446 293L470 293L470 379L493 379L493 334L517 334L517 432L540 432L540 348L540 961L540 961L517 961L517 961L493 961L493 961L470 961L470 961L446 961L446 961L423 961L423 961L399 961L399 961L376 961L376 961L352 961L352 961L329 961L329 961L305 961L305 961L282 961L282 961L258 961L258 961L235 961L235 961L211 961L211 961L188 961L188 961L164 961L164 961L141 961L141 961L117 961L117 961L94 961L94 961L70 961L70 961L47 961L47 961L23 961L23 961L0 961Z" fill="#04008f"></path><path d="M0 77L23 77L23 240L47 240L47 469L70 469L70 75L94 75L94 453L117 453L117 88L141 88L141 481L164 481L164 121L188 121L188 246L211 246L211 453L235 453L235 92L258 92L258 140L282 140L282 394L305 394L305 356L329 356L329 513L352 513L352 440L376 440L376 84L399 84L399 249L423 249L423 311L446 311L446 370L470 370L470 188L493 188L493 224L517 224L517 158L540 158L540 389L540 961L540 961L517 961L517 961L493 961L493 961L470 961L470 961L446 961L446 961L423 961L423 961L399 961L399 961L376 961L376 961L352 961L352 961L329 961L329 961L305 961L305 961L282 961L282 961L258 961L258 961L235 961L235 961L211 961L211 961L188 961L188 961L164 961L164 961L141 961L141 961L117 961L117 961L94 961L94 961L70 961L70 961L47 961L47 961L23 961L23 961L0 961Z" fill="#040099"></path><path d="M0 547L23 547L23 514L47 514L47 538L70 538L70 461L94 461L94 219L117 219L117 389L141 389L141 448L164 448L164 365L188 365L188 398L211 398L211 423L235 423L235 297L258 297L258 275L282 275L282 415L305 415L305 545L329 545L329 429L352 429L352 504L376 504L376 486L399 486L399 311L423 311L423 486L446 486L446 162L470 162L470 396L493 396L493 524L517 524L517 411L540 411L540 214L540 961L540 961L517 961L517 961L493 961L493 961L470 961L470 961L446 961L446 961L423 961L423 961L399 961L399 961L376 961L376 961L352 961L352 961L329 961L329 961L305 961L305 961L282 961L282 961L258 961L258 961L235 961L235 961L211 961L211 961L188 961L188 961L164 961L164 961L141 961L141 961L117 961L117 961L94 961L94 961L70 961L70 961L47 961L47 961L23 961L23 961L0 961Z" fill="#0400a2"></path><path d="M0 515L23 515L23 358L47 358L47 335L70 335L70 277L94 277L94 419L117 419L117 568L141 568L141 454L164 454L164 291L188 291L188 259L211 259L211 506L235 506L235 600L258 600L258 488L282 488L282 312L305 312L305 400L329 400L329 525L352 525L352 389L376 389L376 346L399 346L399 300L423 300L423 341L446 341L446 344L470 344L470 343L493 343L493 504L517 504L517 229L540 229L540 237L540 961L540 961L517 961L517 961L493 961L493 961L470 961L470 961L446 961L446 961L423 961L423 961L399 961L399 961L376 961L376 961L352 961L352 961L329 961L329 961L305 961L305 961L282 961L282 961L258 961L258 961L235 961L235 961L211 961L211 961L188 961L188 961L164 961L164 961L141 961L141 961L117 961L117 961L94 961L94 961L70 961L70 961L47 961L47 961L23 961L23 961L0 961Z" fill="#0400ac"></path><path d="M0 343L23 343L23 318L47 318L47 413L70 413L70 433L94 433L94 331L117 331L117 492L141 492L141 440L164 440L164 324L188 324L188 419L211 419L211 477L235 477L235 473L258 473L258 434L282 434L282 451L305 451L305 431L329 431L329 640L352 640L352 489L376 489L376 518L399 518L399 357L423 357L423 476L446 476L446 478L470 478L470 456L493 456L493 591L517 591L517 503L540 503L540 512L540 961L540 961L517 961L517 961L493 961L493 961L470 961L470 961L446 961L446 961L423 961L423 961L399 961L399 961L376 961L376 961L352 961L352 961L329 961L329 961L305 961L305 961L282 961L282 961L258 961L258 961L235 961L235 961L211 961L211 961L188 961L188 961L164 961L164 961L141 961L141 961L117 961L117 961L94 961L94 961L70 961L70 961L47 961L47 961L23 961L23 961L0 961Z" fill="#0400b6"></path><path d="M0 489L23 489L23 441L47 441L47 633L70 633L70 501L94 501L94 663L117 663L117 672L141 672L141 688L164 688L164 404L188 404L188 531L211 531L211 401L235 401L235 517L258 517L258 603L282 603L282 576L305 576L305 434L329 434L329 680L352 680L352 641L376 641L376 531L399 531L399 636L423 636L423 596L446 596L446 526L470 526L470 654L493 654L493 603L517 603L517 383L540 383L540 548L540 961L540 961L517 961L517 961L493 961L493 961L470 961L470 961L446 961L446 961L423 961L423 961L399 961L399 961L376 961L376 961L352 961L352 961L329 961L329 961L305 961L305 961L282 961L282 961L258 961L258 961L235 961L235 961L211 961L211 961L188 961L188 961L164 961L164 961L141 961L141 961L117 961L117 961L94 961L94 961L70 961L70 961L47 961L47 961L23 961L23 961L0 961Z" fill="#0400c0"></path><path d="M0 637L23 637L23 735L47 735L47 703L70 703L70 517L94 517L94 482L117 482L117 600L141 600L141 539L164 539L164 704L188 704L188 547L211 547L211 636L235 636L235 609L258 609L258 467L282 467L282 666L305 666L305 710L329 710L329 660L352 660L352 656L376 656L376 595L399 595L399 620L423 620L423 598L446 598L446 686L470 686L470 495L493 495L493 700L517 700L517 523L540 523L540 446L540 961L540 961L517 961L517 961L493 961L493 961L470 961L470 961L446 961L446 961L423 961L423 961L399 961L399 961L376 961L376 961L352 961L352 961L329 961L329 961L305 961L305 961L282 961L282 961L258 961L258 961L235 961L235 961L211 961L211 961L188 961L188 961L164 961L164 961L141 961L141 961L117 961L117 961L94 961L94 961L70 961L70 961L47 961L47 961L23 961L23 961L0 961Z" fill="#0400ca"></path><path d="M0 570L23 570L23 616L47 616L47 599L70 599L70 565L94 565L94 656L117 656L117 716L141 716L141 762L164 762L164 639L188 639L188 745L211 745L211 624L235 624L235 672L258 672L258 768L282 768L282 762L305 762L305 518L329 518L329 723L352 723L352 739L376 739L376 605L399 605L399 611L423 611L423 615L446 615L446 662L470 662L470 544L493 544L493 579L517 579L517 642L540 642L540 618L540 961L540 961L517 961L517 961L493 961L493 961L470 961L470 961L446 961L446 961L423 961L423 961L399 961L399 961L376 961L376 961L352 961L352 961L329 961L329 961L305 961L305 961L282 961L282 961L258 961L258 961L235 961L235 961L211 961L211 961L188 961L188 961L164 961L164 961L141 961L141 961L117 961L117 961L94 961L94 961L70 961L70 961L47 961L47 961L23 961L23 961L0 961Z" fill="#0300d5"></path><path d="M0 755L23 755L23 596L47 596L47 654L70 654L70 796L94 796L94 715L117 715L117 808L141 808L141 742L164 742L164 800L188 800L188 810L211 810L211 788L235 788L235 646L258 646L258 811L282 811L282 808L305 808L305 599L329 599L329 719L352 719L352 720L376 720L376 619L399 619L399 761L423 761L423 667L446 667L446 779L470 779L470 823L493 823L493 776L517 776L517 657L540 657L540 816L540 961L540 961L517 961L517 961L493 961L493 961L470 961L470 961L446 961L446 961L423 961L423 961L399 961L399 961L376 961L376 961L352 961L352 961L329 961L329 961L305 961L305 961L282 961L282 961L258 961L258 961L235 961L235 961L211 961L211 961L188 961L188 961L164 961L164 961L141 961L141 961L117 961L117 961L94 961L94 961L70 961L70 961L47 961L47 961L23 961L23 961L0 961Z" fill="#0300df"></path><path d="M0 777L23 777L23 764L47 764L47 742L70 742L70 710L94 710L94 841L117 841L117 691L141 691L141 692L164 692L164 790L188 790L188 701L211 701L211 697L235 697L235 849L258 849L258 792L282 792L282 863L305 863L305 767L329 767L329 844L352 844L352 814L376 814L376 723L399 723L399 679L423 679L423 674L446 674L446 665L470 665L470 747L493 747L493 734L517 734L517 783L540 783L540 697L540 961L540 961L517 961L517 961L493 961L493 961L470 961L470 961L446 961L446 961L423 961L423 961L399 961L399 961L376 961L376 961L352 961L352 961L329 961L329 961L305 961L305 961L282 961L282 961L258 961L258 961L235 961L235 961L211 961L211 961L188 961L188 961L164 961L164 961L141 961L141 961L117 961L117 961L94 961L94 961L70 961L70 961L47 961L47 961L23 961L23 961L0 961Z" fill="#0200ea"></path><path d="M0 914L23 914L23 769L47 769L47 840L70 840L70 746L94 746L94 881L117 881L117 791L141 791L141 803L164 803L164 748L188 748L188 878L211 878L211 812L235 812L235 760L258 760L258 879L282 879L282 824L305 824L305 817L329 817L329 745L352 745L352 899L376 899L376 851L399 851L399 845L423 845L423 902L446 902L446 909L470 909L470 893L493 893L493 891L517 891L517 787L540 787L540 798L540 961L540 961L517 961L517 961L493 961L493 961L470 961L470 961L446 961L446 961L423 961L423 961L399 961L399 961L376 961L376 961L352 961L352 961L329 961L329 961L305 961L305 961L282 961L282 961L258 961L258 961L235 961L235 961L211 961L211 961L188 961L188 961L164 961L164 961L141 961L141 961L117 961L117 961L94 961L94 961L70 961L70 961L47 961L47 961L23 961L23 961L0 961Z" fill="#0100f4"></path><path d="M0 854L23 854L23 812L47 812L47 935L70 935L70 920L94 920L94 894L117 894L117 851L141 851L141 854L164 854L164 817L188 817L188 932L211 932L211 837L235 837L235 943L258 943L258 879L282 879L282 887L305 887L305 849L329 849L329 829L352 829L352 949L376 949L376 833L399 833L399 912L423 912L423 922L446 922L446 873L470 873L470 887L493 887L493 846L517 846L517 833L540 833L540 938L540 961L540 961L517 961L517 961L493 961L493 961L470 961L470 961L446 961L446 961L423 961L423 961L399 961L399 961L376 961L376 961L352 961L352 961L329 961L329 961L305 961L305 961L282 961L282 961L258 961L258 961L235 961L235 961L211 961L211 961L188 961L188 961L164 961L164 961L141 961L141 961L117 961L117 961L94 961L94 961L70 961L70 961L47 961L47 961L23 961L23 961L0 961Z" fill="#0000ff"></path></svg>