<svg id="visual" viewBox="0 0 540 960" width="540" height="960" xmlns="http://www.w3.org/2000/svg" xmlns:xlink="http://www.w3.org/1999/xlink" version="1.1"><rect x="0" y="0" width="540" height="960" fill="#000221"></rect><path d="M0 883L23 883L23 870L47 870L47 900L70 900L70 909L94 909L94 897L117 897L117 869L141 869L141 869L164 869L164 902L188 902L188 872L211 872L211 870L235 870L235 866L258 866L258 884L282 884L282 876L305 876L305 886L329 886L329 903L352 903L352 908L376 908L376 868L399 868L399 902L423 902L423 873L446 873L446 892L470 892L470 901L493 901L493 896L517 896L517 906L540 906L540 898L540 961L540 961L517 961L517 961L493 961L493 961L470 961L470 961L446 961L446 961L423 961L423 961L399 961L399 961L376 961L376 961L352 961L352 961L329 961L329 961L305 961L305 961L282 961L282 961L258 961L258 961L235 961L235 961L211 961L211 961L188 961L188 961L164 961L164 961L141 961L141 961L117 961L117 961L94 961L94 961L70 961L70 961L47 961L47 961L23 961L23 961L0 961Z" fill="#04008f"></path><path d="M0 871L23 871L23 887L47 887L47 910L70 910L70 871L94 871L94 908L117 908L117 872L141 872L141 911L164 911L164 875L188 875L188 888L211 888L211 908L235 908L235 872L258 872L258 877L282 877L282 903L305 903L305 899L329 899L329 914L352 914L352 907L376 907L376 872L399 872L399 888L423 888L423 894L446 894L446 900L470 900L470 882L493 882L493 885L517 885L517 879L540 879L540 902L540 961L540 961L517 961L517 961L493 961L493 961L470 961L470 961L446 961L446 961L423 961L423 961L399 961L399 961L376 961L376 961L352 961L352 961L329 961L329 961L305 961L305 961L282 961L282 961L258 961L258 961L235 961L235 961L211 961L211 961L188 961L188 961L164 961L164 961L141 961L141 961L117 961L117 961L94 961L94 961L70 961L70 961L47 961L47 961L23 961L23 961L0 961Z" fill="#040099"></path><path d="M0 918L23 918L23 915L47 915L47 917L70 917L70 909L94 909L94 885L117 885L117 902L141 902L141 908L164 908L164 900L188 900L188 903L211 903L211 905L235 905L235 893L258 893L258 891L282 891L282 905L305 905L305 918L329 918L329 906L352 906L352 914L376 914L376 912L399 912L399 894L423 894L423 912L446 912L446 879L470 879L470 903L493 903L493 915L517 915L517 904L540 904L540 885L540 961L540 961L517 961L517 961L493 961L493 961L470 961L470 961L446 961L446 961L423 961L423 961L399 961L399 961L376 961L376 961L352 961L352 961L329 961L329 961L305 961L305 961L282 961L282 961L258 961L258 961L235 961L235 961L211 961L211 961L188 961L188 961L164 961L164 961L141 961L141 961L117 961L117 961L94 961L94 961L70 961L70 961L47 961L47 961L23 961L23 961L0 961Z" fill="#0400a2"></path><path d="M0 915L23 915L23 899L47 899L47 897L70 897L70 891L94 891L94 905L117 905L117 920L141 920L141 908L164 908L164 892L188 892L188 889L211 889L211 914L235 914L235 923L258 923L258 912L282 912L282 894L305 894L305 903L329 903L329 916L352 916L352 902L376 902L376 898L399 898L399 893L423 893L423 897L446 897L446 897L470 897L470 897L493 897L493 914L517 914L517 886L540 886L540 887L540 961L540 961L517 961L517 961L493 961L493 961L470 961L470 961L446 961L446 961L423 961L423 961L399 961L399 961L376 961L376 961L352 961L352 961L329 961L329 961L305 961L305 961L282 961L282 961L258 961L258 961L235 961L235 961L211 961L211 961L188 961L188 961L164 961L164 961L141 961L141 961L117 961L117 961L94 961L94 961L70 961L70 961L47 961L47 961L23 961L23 961L0 961Z" fill="#0400ac"></path><path d="M0 897L23 897L23 895L47 895L47 904L70 904L70 906L94 906L94 896L117 896L117 912L141 912L141 907L164 907L164 895L188 895L188 905L211 905L211 911L235 911L235 910L258 910L258 907L282 907L282 908L305 908L305 906L329 906L329 927L352 927L352 912L376 912L376 915L399 915L399 899L423 899L423 911L446 911L446 911L470 911L470 909L493 909L493 922L517 922L517 913L540 913L540 914L540 961L540 961L517 961L517 961L493 961L493 961L470 961L470 961L446 961L446 961L423 961L423 961L399 961L399 961L376 961L376 961L352 961L352 961L329 961L329 961L305 961L305 961L282 961L282 961L258 961L258 961L235 961L235 961L211 961L211 961L188 961L188 961L164 961L164 961L141 961L141 961L117 961L117 961L94 961L94 961L70 961L70 961L47 961L47 961L23 961L23 961L0 961Z" fill="#0400b6"></path><path d="M0 912L23 912L23 907L47 907L47 926L70 926L70 913L94 913L94 929L117 929L117 930L141 930L141 932L164 932L164 904L188 904L188 916L211 916L211 903L235 903L235 915L258 915L258 923L282 923L282 921L305 921L305 906L329 906L329 931L352 931L352 927L376 927L376 916L399 916L399 927L423 927L423 923L446 923L446 916L470 916L470 929L493 929L493 923L517 923L517 901L540 901L540 918L540 961L540 961L517 961L517 961L493 961L493 961L470 961L470 961L446 961L446 961L423 961L423 961L399 961L399 961L376 961L376 961L352 961L352 961L329 961L329 961L305 961L305 961L282 961L282 961L258 961L258 961L235 961L235 961L211 961L211 961L188 961L188 961L164 961L164 961L141 961L141 961L117 961L117 961L94 961L94 961L70 961L70 961L47 961L47 961L23 961L23 961L0 961Z" fill="#0400c0"></path><path d="M0 927L23 927L23 937L47 937L47 933L70 933L70 915L94 915L94 911L117 911L117 923L141 923L141 917L164 917L164 934L188 934L188 918L211 918L211 927L235 927L235 924L258 924L258 910L282 910L282 930L305 930L305 934L329 934L329 929L352 929L352 929L376 929L376 923L399 923L399 925L423 925L423 923L446 923L446 932L470 932L470 913L493 913L493 933L517 933L517 915L540 915L540 908L540 961L540 961L517 961L517 961L493 961L493 961L470 961L470 961L446 961L446 961L423 961L423 961L399 961L399 961L376 961L376 961L352 961L352 961L329 961L329 961L305 961L305 961L282 961L282 961L258 961L258 961L235 961L235 961L211 961L211 961L188 961L188 961L164 961L164 961L141 961L141 961L117 961L117 961L94 961L94 961L70 961L70 961L47 961L47 961L23 961L23 961L0 961Z" fill="#0400ca"></path><path d="M0 920L23 920L23 925L47 925L47 923L70 923L70 920L94 920L94 929L117 929L117 935L141 935L141 939L164 939L164 927L188 927L188 938L211 938L211 925L235 925L235 930L258 930L258 940L282 940L282 939L305 939L305 915L329 915L329 935L352 935L352 937L376 937L376 924L399 924L399 924L423 924L423 925L446 925L446 929L470 929L470 918L493 918L493 921L517 921L517 927L540 927L540 925L540 961L540 961L517 961L517 961L493 961L493 961L470 961L470 961L446 961L446 961L423 961L423 961L399 961L399 961L376 961L376 961L352 961L352 961L329 961L329 961L305 961L305 961L282 961L282 961L258 961L258 961L235 961L235 961L211 961L211 961L188 961L188 961L164 961L164 961L141 961L141 961L117 961L117 961L94 961L94 961L70 961L70 961L47 961L47 961L23 961L23 961L0 961Z" fill="#0300d5"></path><path d="M0 939L23 939L23 923L47 923L47 929L70 929L70 943L94 943L94 935L117 935L117 944L141 944L141 937L164 937L164 943L188 943L188 944L211 944L211 942L235 942L235 928L258 928L258 944L282 944L282 944L305 944L305 923L329 923L329 935L352 935L352 935L376 935L376 925L399 925L399 939L423 939L423 930L446 930L446 941L470 941L470 945L493 945L493 941L517 941L517 929L540 929L540 945L540 961L540 961L517 961L517 961L493 961L493 961L470 961L470 961L446 961L446 961L423 961L423 961L399 961L399 961L376 961L376 961L352 961L352 961L329 961L329 961L305 961L305 961L282 961L282 961L258 961L258 961L235 961L235 961L211 961L211 961L188 961L188 961L164 961L164 961L141 961L141 961L117 961L117 961L94 961L94 961L70 961L70 961L47 961L47 961L23 961L23 961L0 961Z" fill="#0300df"></path><path d="M0 941L23 941L23 939L47 939L47 937L70 937L70 934L94 934L94 947L117 947L117 932L141 932L141 932L164 932L164 942L188 942L188 933L211 933L211 933L235 933L235 948L258 948L258 942L282 942L282 949L305 949L305 940L329 940L329 947L352 947L352 944L376 944L376 935L399 935L399 931L423 931L423 931L446 931L446 930L470 930L470 938L493 938L493 936L517 936L517 941L540 941L540 933L540 961L540 961L517 961L517 961L493 961L493 961L470 961L470 961L446 961L446 961L423 961L423 961L399 961L399 961L376 961L376 961L352 961L352 961L329 961L329 961L305 961L305 961L282 961L282 961L258 961L258 961L235 961L235 961L211 961L211 961L188 961L188 961L164 961L164 961L141 961L141 961L117 961L117 961L94 961L94 961L70 961L70 961L47 961L47 961L23 961L23 961L0 961Z" fill="#0200ea"></path><path d="M0 955L23 955L23 940L47 940L47 947L70 947L70 938L94 938L94 951L117 951L117 942L141 942L141 943L164 943L164 938L188 938L188 951L211 951L211 944L235 944L235 939L258 939L258 951L282 951L282 945L305 945L305 945L329 945L329 938L352 938L352 953L376 953L376 948L399 948L399 948L423 948L423 953L446 953L446 954L470 954L470 952L493 952L493 952L517 952L517 942L540 942L540 943L540 961L540 961L517 961L517 961L493 961L493 961L470 961L470 961L446 961L446 961L423 961L423 961L399 961L399 961L376 961L376 961L352 961L352 961L329 961L329 961L305 961L305 961L282 961L282 961L258 961L258 961L235 961L235 961L211 961L211 961L188 961L188 961L164 961L164 961L141 961L141 961L117 961L117 961L94 961L94 961L70 961L70 961L47 961L47 961L23 961L23 961L0 961Z" fill="#0100f4"></path><path d="M0 949L23 949L23 944L47 944L47 957L70 957L70 955L94 955L94 952L117 952L117 948L141 948L141 949L164 949L164 945L188 945L188 956L211 956L211 947L235 947L235 957L258 957L258 951L282 951L282 952L305 952L305 948L329 948L329 946L352 946L352 958L376 958L376 946L399 946L399 954L423 954L423 955L446 955L446 950L470 950L470 952L493 952L493 948L517 948L517 946L540 946L540 957L540 961L540 961L517 961L517 961L493 961L493 961L470 961L470 961L446 961L446 961L423 961L423 961L399 961L399 961L376 961L376 961L352 961L352 961L329 961L329 961L305 961L305 961L282 961L282 961L258 961L258 961L235 961L235 961L211 961L211 961L188 961L188 961L164 961L164 961L141 961L141 961L117 961L117 961L94 961L94 961L70 961L70 961L47 961L47 961L23 961L23 961L0 961Z" fill="#0000ff"></path></svg>