<svg id="visual" viewBox="0 0 540 960" width="540" height="960" xmlns="http://www.w3.org/2000/svg" xmlns:xlink="http://www.w3.org/1999/xlink" version="1.1"><rect x="0" y="0" width="540" height="960" fill="#000221"></rect><path d="M0 273L23 273L23 155L47 155L47 424L70 424L70 505L94 505L94 404L117 404L117 153L141 153L141 150L164 150L164 449L188 449L188 173L211 173L211 158L235 158L235 124L258 124L258 283L282 283L282 215L305 215L305 301L329 301L329 455L352 455L352 498L376 498L376 143L399 143L399 450L423 450L423 189L446 189L446 360L470 360L470 437L493 437L493 396L517 396L517 485L540 485L540 409L540 961L540 961L517 961L517 961L493 961L493 961L470 961L470 961L446 961L446 961L423 961L423 961L399 961L399 961L376 961L376 961L352 961L352 961L329 961L329 961L305 961L305 961L282 961L282 961L258 961L258 961L235 961L235 961L211 961L211 961L188 961L188 961L164 961L164 961L141 961L141 961L117 961L117 961L94 961L94 961L70 961L70 961L47 961L47 961L23 961L23 961L0 961Z" fill="#04008f"></path><path d="M0 166L23 166L23 312L47 312L47 518L70 518L70 163L94 163L94 504L117 504L117 175L141 175L141 529L164 529L164 205L188 205L188 317L211 317L211 504L235 504L235 179L258 179L258 222L282 222L282 451L305 451L305 416L329 416L329 558L352 558L352 492L376 492L376 172L399 172L399 320L423 320L423 376L446 376L446 429L470 429L470 266L493 266L493 297L517 297L517 238L540 238L540 446L540 961L540 961L517 961L517 961L493 961L493 961L470 961L470 961L446 961L446 961L423 961L423 961L399 961L399 961L376 961L376 961L352 961L352 961L329 961L329 961L305 961L305 961L282 961L282 961L258 961L258 961L235 961L235 961L211 961L211 961L188 961L188 961L164 961L164 961L141 961L141 961L117 961L117 961L94 961L94 961L70 961L70 961L47 961L47 961L23 961L23 961L0 961Z" fill="#040099"></path><path d="M0 588L23 588L23 559L47 559L47 580L70 580L70 511L94 511L94 293L117 293L117 446L141 446L141 499L164 499L164 424L188 424L188 454L211 454L211 477L235 477L235 364L258 364L258 344L282 344L282 469L305 469L305 586L329 586L329 482L352 482L352 550L376 550L376 533L399 533L399 376L423 376L423 534L446 534L446 242L470 242L470 452L493 452L493 567L517 567L517 465L540 465L540 289L540 961L540 961L517 961L517 961L493 961L493 961L470 961L470 961L446 961L446 961L423 961L423 961L399 961L399 961L376 961L376 961L352 961L352 961L329 961L329 961L305 961L305 961L282 961L282 961L258 961L258 961L235 961L235 961L211 961L211 961L188 961L188 961L164 961L164 961L141 961L141 961L117 961L117 961L94 961L94 961L70 961L70 961L47 961L47 961L23 961L23 961L0 961Z" fill="#0400a2"></path><path d="M0 560L23 560L23 418L47 418L47 398L70 398L70 345L94 345L94 473L117 473L117 607L141 607L141 504L164 504L164 358L188 358L188 329L211 329L211 551L235 551L235 636L258 636L258 535L282 535L282 377L305 377L305 456L329 456L329 568L352 568L352 446L376 446L376 407L399 407L399 366L423 366L423 403L446 403L446 405L470 405L470 405L493 405L493 550L517 550L517 302L540 302L540 309L540 961L540 961L517 961L517 961L493 961L493 961L470 961L470 961L446 961L446 961L423 961L423 961L399 961L399 961L376 961L376 961L352 961L352 961L329 961L329 961L305 961L305 961L282 961L282 961L258 961L258 961L235 961L235 961L211 961L211 961L188 961L188 961L164 961L164 961L141 961L141 961L117 961L117 961L94 961L94 961L70 961L70 961L47 961L47 961L23 961L23 961L0 961Z" fill="#0400ac"></path><path d="M0 404L23 404L23 382L47 382L47 468L70 468L70 486L94 486L94 394L117 394L117 538L141 538L141 492L164 492L164 387L188 387L188 473L211 473L211 525L235 525L235 522L258 522L258 487L282 487L282 502L305 502L305 484L329 484L329 672L352 672L352 536L376 536L376 562L399 562L399 417L423 417L423 524L446 524L446 526L470 526L470 506L493 506L493 627L517 627L517 548L540 548L540 556L540 961L540 961L517 961L517 961L493 961L493 961L470 961L470 961L446 961L446 961L423 961L423 961L399 961L399 961L376 961L376 961L352 961L352 961L329 961L329 961L305 961L305 961L282 961L282 961L258 961L258 961L235 961L235 961L211 961L211 961L188 961L188 961L164 961L164 961L141 961L141 961L117 961L117 961L94 961L94 961L70 961L70 961L47 961L47 961L23 961L23 961L0 961Z" fill="#0400b6"></path><path d="M0 536L23 536L23 493L47 493L47 666L70 666L70 547L94 547L94 693L117 693L117 701L141 701L141 715L164 715L164 460L188 460L188 574L211 574L211 457L235 457L235 561L258 561L258 638L282 638L282 614L305 614L305 486L329 486L329 708L352 708L352 673L376 673L376 574L399 574L399 668L423 668L423 632L446 632L446 569L470 569L470 685L493 685L493 639L517 639L517 440L540 440L540 589L540 961L540 961L517 961L517 961L493 961L493 961L470 961L470 961L446 961L446 961L423 961L423 961L399 961L399 961L376 961L376 961L352 961L352 961L329 961L329 961L305 961L305 961L282 961L282 961L258 961L258 961L235 961L235 961L211 961L211 961L188 961L188 961L164 961L164 961L141 961L141 961L117 961L117 961L94 961L94 961L70 961L70 961L47 961L47 961L23 961L23 961L0 961Z" fill="#0400c0"></path><path d="M0 669L23 669L23 757L47 757L47 729L70 729L70 561L94 561L94 530L117 530L117 636L141 636L141 581L164 581L164 730L188 730L188 588L211 588L211 668L235 668L235 644L258 644L258 516L282 516L282 695L305 695L305 735L329 735L329 690L352 690L352 686L376 686L376 632L399 632L399 654L423 654L423 634L446 634L446 713L470 713L470 542L493 542L493 726L517 726L517 567L540 567L540 497L540 961L540 961L517 961L517 961L493 961L493 961L470 961L470 961L446 961L446 961L423 961L423 961L399 961L399 961L376 961L376 961L352 961L352 961L329 961L329 961L305 961L305 961L282 961L282 961L258 961L258 961L235 961L235 961L211 961L211 961L188 961L188 961L164 961L164 961L141 961L141 961L117 961L117 961L94 961L94 961L70 961L70 961L47 961L47 961L23 961L23 961L0 961Z" fill="#0400ca"></path><path d="M0 609L23 609L23 650L47 650L47 635L70 635L70 604L94 604L94 687L117 687L117 741L141 741L141 782L164 782L164 671L188 671L188 766L211 766L211 657L235 657L235 701L258 701L258 787L282 787L282 782L305 782L305 562L329 562L329 746L352 746L352 761L376 761L376 640L399 640L399 646L423 646L423 649L446 649L446 691L470 691L470 586L493 586L493 617L517 617L517 674L540 674L540 652L540 961L540 961L517 961L517 961L493 961L493 961L470 961L470 961L446 961L446 961L423 961L423 961L399 961L399 961L376 961L376 961L352 961L352 961L329 961L329 961L305 961L305 961L282 961L282 961L258 961L258 961L235 961L235 961L211 961L211 961L188 961L188 961L164 961L164 961L141 961L141 961L117 961L117 961L94 961L94 961L70 961L70 961L47 961L47 961L23 961L23 961L0 961Z" fill="#0300d5"></path><path d="M0 775L23 775L23 633L47 633L47 685L70 685L70 813L94 813L94 740L117 740L117 823L141 823L141 764L164 764L164 816L188 816L188 825L211 825L211 805L235 805L235 677L258 677L258 826L282 826L282 823L305 823L305 635L329 635L329 743L352 743L352 744L376 744L376 653L399 653L399 781L423 781L423 696L446 696L446 797L470 797L470 837L493 837L493 794L517 794L517 687L540 687L540 830L540 961L540 961L517 961L517 961L493 961L493 961L470 961L470 961L446 961L446 961L423 961L423 961L399 961L399 961L376 961L376 961L352 961L352 961L329 961L329 961L305 961L305 961L282 961L282 961L258 961L258 961L235 961L235 961L211 961L211 961L188 961L188 961L164 961L164 961L141 961L141 961L117 961L117 961L94 961L94 961L70 961L70 961L47 961L47 961L23 961L23 961L0 961Z" fill="#0300df"></path><path d="M0 795L23 795L23 783L47 783L47 764L70 764L70 735L94 735L94 853L117 853L117 718L141 718L141 719L164 719L164 807L188 807L188 727L211 727L211 723L235 723L235 860L258 860L258 808L282 808L282 873L305 873L305 786L329 786L329 855L352 855L352 828L376 828L376 747L399 747L399 707L423 707L423 703L446 703L446 695L470 695L470 769L493 769L493 756L517 756L517 800L540 800L540 723L540 961L540 961L517 961L517 961L493 961L493 961L470 961L470 961L446 961L446 961L423 961L423 961L399 961L399 961L376 961L376 961L352 961L352 961L329 961L329 961L305 961L305 961L282 961L282 961L258 961L258 961L235 961L235 961L211 961L211 961L188 961L188 961L164 961L164 961L141 961L141 961L117 961L117 961L94 961L94 961L70 961L70 961L47 961L47 961L23 961L23 961L0 961Z" fill="#0200ea"></path><path d="M0 919L23 919L23 788L47 788L47 852L70 852L70 768L94 768L94 889L117 889L117 808L141 808L141 819L164 819L164 769L188 769L188 886L211 886L211 826L235 826L235 780L258 780L258 887L282 887L282 837L305 837L305 831L329 831L329 766L352 766L352 905L376 905L376 862L399 862L399 856L423 856L423 908L446 908L446 914L470 914L470 900L493 900L493 898L517 898L517 805L540 805L540 814L540 961L540 961L517 961L517 961L493 961L493 961L470 961L470 961L446 961L446 961L423 961L423 961L399 961L399 961L376 961L376 961L352 961L352 961L329 961L329 961L305 961L305 961L282 961L282 961L258 961L258 961L235 961L235 961L211 961L211 961L188 961L188 961L164 961L164 961L141 961L141 961L117 961L117 961L94 961L94 961L70 961L70 961L47 961L47 961L23 961L23 961L0 961Z" fill="#0100f4"></path><path d="M0 865L23 865L23 827L47 827L47 937L70 937L70 924L94 924L94 900L117 900L117 862L141 862L141 865L164 865L164 832L188 832L188 935L211 935L211 849L235 849L235 945L258 945L258 887L282 887L282 894L305 894L305 860L329 860L329 842L352 842L352 950L376 950L376 846L399 846L399 917L423 917L423 925L446 925L446 881L470 881L470 894L493 894L493 858L517 858L517 846L540 846L540 940L540 961L540 961L517 961L517 961L493 961L493 961L470 961L470 961L446 961L446 961L423 961L423 961L399 961L399 961L376 961L376 961L352 961L352 961L329 961L329 961L305 961L305 961L282 961L282 961L258 961L258 961L235 961L235 961L211 961L211 961L188 961L188 961L164 961L164 961L141 961L141 961L117 961L117 961L94 961L94 961L70 961L70 961L47 961L47 961L23 961L23 961L0 961Z" fill="#0000ff"></path></svg>