<svg id="visual" viewBox="0 0 540 960" width="540" height="960" xmlns="http://www.w3.org/2000/svg" xmlns:xlink="http://www.w3.org/1999/xlink" version="1.1"><rect x="0" y="0" width="540" height="960" fill="#000221"></rect><path d="M0 349L23 349L23 244L47 244L47 484L70 484L70 555L94 555L94 466L117 466L117 243L141 243L141 240L164 240L164 505L188 505L188 260L211 260L211 247L235 247L235 217L258 217L258 358L282 358L282 297L305 297L305 374L329 374L329 511L352 511L352 549L376 549L376 234L399 234L399 507L423 507L423 275L446 275L446 426L470 426L470 495L493 495L493 459L517 459L517 537L540 537L540 470L540 961L540 961L517 961L517 961L493 961L493 961L470 961L470 961L446 961L446 961L423 961L423 961L399 961L399 961L376 961L376 961L352 961L352 961L329 961L329 961L305 961L305 961L282 961L282 961L258 961L258 961L235 961L235 961L211 961L211 961L188 961L188 961L164 961L164 961L141 961L141 961L117 961L117 961L94 961L94 961L70 961L70 961L47 961L47 961L23 961L23 961L0 961Z" fill="#04008f"></path><path d="M0 254L23 254L23 384L47 384L47 567L70 567L70 251L94 251L94 555L117 555L117 262L141 262L141 577L164 577L164 289L188 289L188 389L211 389L211 554L235 554L235 266L258 266L258 303L282 303L282 507L305 507L305 477L329 477L329 602L352 602L352 544L376 544L376 259L399 259L399 391L423 391L423 441L446 441L446 488L470 488L470 343L493 343L493 371L517 371L517 318L540 318L540 503L540 961L540 961L517 961L517 961L493 961L493 961L470 961L470 961L446 961L446 961L423 961L423 961L399 961L399 961L376 961L376 961L352 961L352 961L329 961L329 961L305 961L305 961L282 961L282 961L258 961L258 961L235 961L235 961L211 961L211 961L188 961L188 961L164 961L164 961L141 961L141 961L117 961L117 961L94 961L94 961L70 961L70 961L47 961L47 961L23 961L23 961L0 961Z" fill="#040099"></path><path d="M0 629L23 629L23 603L47 603L47 622L70 622L70 561L94 561L94 367L117 367L117 503L141 503L141 550L164 550L164 484L188 484L188 510L211 510L211 530L235 530L235 430L258 430L258 412L282 412L282 524L305 524L305 628L329 628L329 535L352 535L352 595L376 595L376 581L399 581L399 440L423 440L423 581L446 581L446 321L470 321L470 508L493 508L493 611L517 611L517 520L540 520L540 363L540 961L540 961L517 961L517 961L493 961L493 961L470 961L470 961L446 961L446 961L423 961L423 961L399 961L399 961L376 961L376 961L352 961L352 961L329 961L329 961L305 961L305 961L282 961L282 961L258 961L258 961L235 961L235 961L211 961L211 961L188 961L188 961L164 961L164 961L141 961L141 961L117 961L117 961L94 961L94 961L70 961L70 961L47 961L47 961L23 961L23 961L0 961Z" fill="#0400a2"></path><path d="M0 604L23 604L23 478L47 478L47 460L70 460L70 414L94 414L94 527L117 527L117 646L141 646L141 555L164 555L164 425L188 425L188 399L211 399L211 596L235 596L235 672L258 672L258 582L282 582L282 442L305 442L305 512L329 512L329 612L352 612L352 503L376 503L376 468L399 468L399 432L423 432L423 465L446 465L446 467L470 467L470 466L493 466L493 595L517 595L517 375L540 375L540 381L540 961L540 961L517 961L517 961L493 961L493 961L470 961L470 961L446 961L446 961L423 961L423 961L399 961L399 961L376 961L376 961L352 961L352 961L329 961L329 961L305 961L305 961L282 961L282 961L258 961L258 961L235 961L235 961L211 961L211 961L188 961L188 961L164 961L164 961L141 961L141 961L117 961L117 961L94 961L94 961L70 961L70 961L47 961L47 961L23 961L23 961L0 961Z" fill="#0400ac"></path><path d="M0 466L23 466L23 446L47 446L47 522L70 522L70 539L94 539L94 457L117 457L117 585L141 585L141 544L164 544L164 451L188 451L188 527L211 527L211 573L235 573L235 570L258 570L258 539L282 539L282 552L305 552L305 536L329 536L329 704L352 704L352 583L376 583L376 606L399 606L399 478L423 478L423 572L446 572L446 574L470 574L470 556L493 556L493 664L517 664L517 594L540 594L540 601L540 961L540 961L517 961L517 961L493 961L493 961L470 961L470 961L446 961L446 961L423 961L423 961L399 961L399 961L376 961L376 961L352 961L352 961L329 961L329 961L305 961L305 961L282 961L282 961L258 961L258 961L235 961L235 961L211 961L211 961L188 961L188 961L164 961L164 961L141 961L141 961L117 961L117 961L94 961L94 961L70 961L70 961L47 961L47 961L23 961L23 961L0 961Z" fill="#0400b6"></path><path d="M0 583L23 583L23 544L47 544L47 698L70 698L70 593L94 593L94 722L117 722L117 730L141 730L141 742L164 742L164 515L188 515L188 617L211 617L211 513L235 513L235 605L258 605L258 674L282 674L282 652L305 652L305 539L329 539L329 736L352 736L352 705L376 705L376 617L399 617L399 701L423 701L423 669L446 669L446 613L470 613L470 715L493 715L493 675L517 675L517 498L540 498L540 630L540 961L540 961L517 961L517 961L493 961L493 961L470 961L470 961L446 961L446 961L423 961L423 961L399 961L399 961L376 961L376 961L352 961L352 961L329 961L329 961L305 961L305 961L282 961L282 961L258 961L258 961L235 961L235 961L211 961L211 961L188 961L188 961L164 961L164 961L141 961L141 961L117 961L117 961L94 961L94 961L70 961L70 961L47 961L47 961L23 961L23 961L0 961Z" fill="#0400c0"></path><path d="M0 701L23 701L23 780L47 780L47 754L70 754L70 605L94 605L94 577L117 577L117 672L141 672L141 623L164 623L164 755L188 755L188 629L211 629L211 701L235 701L235 679L258 679L258 565L282 565L282 724L305 724L305 760L329 760L329 720L352 720L352 717L376 717L376 668L399 668L399 688L423 688L423 670L446 670L446 741L470 741L470 588L493 588L493 752L517 752L517 611L540 611L540 548L540 961L540 961L517 961L517 961L493 961L493 961L470 961L470 961L446 961L446 961L423 961L423 961L399 961L399 961L376 961L376 961L352 961L352 961L329 961L329 961L305 961L305 961L282 961L282 961L258 961L258 961L235 961L235 961L211 961L211 961L188 961L188 961L164 961L164 961L141 961L141 961L117 961L117 961L94 961L94 961L70 961L70 961L47 961L47 961L23 961L23 961L0 961Z" fill="#0400ca"></path><path d="M0 648L23 648L23 684L47 684L47 671L70 671L70 644L94 644L94 717L117 717L117 765L141 765L141 801L164 801L164 703L188 703L188 788L211 788L211 691L235 691L235 730L258 730L258 806L282 806L282 802L305 802L305 606L329 606L329 770L352 770L352 783L376 783L376 676L399 676L399 681L423 681L423 684L446 684L446 721L470 721L470 627L493 627L493 655L517 655L517 705L540 705L540 686L540 961L540 961L517 961L517 961L493 961L493 961L470 961L470 961L446 961L446 961L423 961L423 961L399 961L399 961L376 961L376 961L352 961L352 961L329 961L329 961L305 961L305 961L282 961L282 961L258 961L258 961L235 961L235 961L211 961L211 961L188 961L188 961L164 961L164 961L141 961L141 961L117 961L117 961L94 961L94 961L70 961L70 961L47 961L47 961L23 961L23 961L0 961Z" fill="#0300d5"></path><path d="M0 796L23 796L23 669L47 669L47 715L70 715L70 829L94 829L94 764L117 764L117 838L141 838L141 786L164 786L164 832L188 832L188 839L211 839L211 822L235 822L235 708L258 708L258 841L282 841L282 838L305 838L305 671L329 671L329 767L352 767L352 768L376 768L376 687L399 687L399 801L423 801L423 725L446 725L446 815L470 815L470 850L493 850L493 813L517 813L517 717L540 717L540 844L540 961L540 961L517 961L517 961L493 961L493 961L470 961L470 961L446 961L446 961L423 961L423 961L399 961L399 961L376 961L376 961L352 961L352 961L329 961L329 961L305 961L305 961L282 961L282 961L258 961L258 961L235 961L235 961L211 961L211 961L188 961L188 961L164 961L164 961L141 961L141 961L117 961L117 961L94 961L94 961L70 961L70 961L47 961L47 961L23 961L23 961L0 961Z" fill="#0300df"></path><path d="M0 813L23 813L23 803L47 803L47 785L70 785L70 760L94 760L94 865L117 865L117 745L141 745L141 746L164 746L164 824L188 824L188 753L211 753L211 749L235 749L235 871L258 871L258 825L282 825L282 882L305 882L305 805L329 805L329 867L352 867L352 843L376 843L376 770L399 770L399 735L423 735L423 731L446 731L446 724L470 724L470 790L493 790L493 779L517 779L517 818L540 818L540 749L540 961L540 961L517 961L517 961L493 961L493 961L470 961L470 961L446 961L446 961L423 961L423 961L399 961L399 961L376 961L376 961L352 961L352 961L329 961L329 961L305 961L305 961L282 961L282 961L258 961L258 961L235 961L235 961L211 961L211 961L188 961L188 961L164 961L164 961L141 961L141 961L117 961L117 961L94 961L94 961L70 961L70 961L47 961L47 961L23 961L23 961L0 961Z" fill="#0200ea"></path><path d="M0 923L23 923L23 807L47 807L47 864L70 864L70 789L94 789L94 897L117 897L117 825L141 825L141 834L164 834L164 790L188 790L188 894L211 894L211 841L235 841L235 800L258 800L258 895L282 895L282 851L305 851L305 845L329 845L329 788L352 788L352 911L376 911L376 872L399 872L399 867L423 867L423 913L446 913L446 919L470 919L470 906L493 906L493 905L517 905L517 822L540 822L540 830L540 961L540 961L517 961L517 961L493 961L493 961L470 961L470 961L446 961L446 961L423 961L423 961L399 961L399 961L376 961L376 961L352 961L352 961L329 961L329 961L305 961L305 961L282 961L282 961L258 961L258 961L235 961L235 961L211 961L211 961L188 961L188 961L164 961L164 961L141 961L141 961L117 961L117 961L94 961L94 961L70 961L70 961L47 961L47 961L23 961L23 961L0 961Z" fill="#0100f4"></path><path d="M0 875L23 875L23 842L47 842L47 940L70 940L70 928L94 928L94 907L117 907L117 873L141 873L141 875L164 875L164 846L188 846L188 937L211 937L211 861L235 861L235 946L258 946L258 895L282 895L282 901L305 901L305 871L329 871L329 855L352 855L352 951L376 951L376 858L399 858L399 921L423 921L423 929L446 929L446 890L470 890L470 901L493 901L493 869L517 869L517 858L540 858L540 942L540 961L540 961L517 961L517 961L493 961L493 961L470 961L470 961L446 961L446 961L423 961L423 961L399 961L399 961L376 961L376 961L352 961L352 961L329 961L329 961L305 961L305 961L282 961L282 961L258 961L258 961L235 961L235 961L211 961L211 961L188 961L188 961L164 961L164 961L141 961L141 961L117 961L117 961L94 961L94 961L70 961L70 961L47 961L47 961L23 961L23 961L0 961Z" fill="#0000ff"></path></svg>