<svg id="visual" viewBox="0 0 540 960" width="540" height="960" xmlns="http://www.w3.org/2000/svg" xmlns:xlink="http://www.w3.org/1999/xlink" version="1.1"><rect x="0" y="0" width="540" height="960" fill="#000221"></rect><path d="M0 425L23 425L23 334L47 334L47 543L70 543L70 606L94 606L94 528L117 528L117 332L141 332L141 330L164 330L164 562L188 562L188 348L211 348L211 336L235 336L235 310L258 310L258 433L282 433L282 380L305 380L305 447L329 447L329 567L352 567L352 600L376 600L376 324L399 324L399 563L423 563L423 360L446 360L446 493L470 493L470 553L493 553L493 521L517 521L517 590L540 590L540 531L540 961L540 961L517 961L517 961L493 961L493 961L470 961L470 961L446 961L446 961L423 961L423 961L399 961L399 961L376 961L376 961L352 961L352 961L329 961L329 961L305 961L305 961L282 961L282 961L258 961L258 961L235 961L235 961L211 961L211 961L188 961L188 961L164 961L164 961L141 961L141 961L117 961L117 961L94 961L94 961L70 961L70 961L47 961L47 961L23 961L23 961L0 961Z" fill="#04008f"></path><path d="M0 342L23 342L23 456L47 456L47 616L70 616L70 340L94 340L94 605L117 605L117 349L141 349L141 625L164 625L164 372L188 372L188 460L211 460L211 605L235 605L235 352L258 352L258 385L282 385L282 564L305 564L305 537L329 537L329 647L352 647L352 596L376 596L376 347L399 347L399 462L423 462L423 505L446 505L446 547L470 547L470 420L493 420L493 444L517 444L517 398L540 398L540 560L540 961L540 961L517 961L517 961L493 961L493 961L470 961L470 961L446 961L446 961L423 961L423 961L399 961L399 961L376 961L376 961L352 961L352 961L329 961L329 961L305 961L305 961L282 961L282 961L258 961L258 961L235 961L235 961L211 961L211 961L188 961L188 961L164 961L164 961L141 961L141 961L117 961L117 961L94 961L94 961L70 961L70 961L47 961L47 961L23 961L23 961L0 961Z" fill="#040099"></path><path d="M0 670L23 670L23 648L47 648L47 665L70 665L70 611L94 611L94 441L117 441L117 560L141 560L141 601L164 601L164 543L188 543L188 566L211 566L211 584L235 584L235 496L258 496L258 481L282 481L282 578L305 578L305 669L329 669L329 588L352 588L352 641L376 641L376 628L399 628L399 505L423 505L423 628L446 628L446 401L470 401L470 565L493 565L493 654L517 654L517 575L540 575L540 438L540 961L540 961L517 961L517 961L493 961L493 961L470 961L470 961L446 961L446 961L423 961L423 961L399 961L399 961L376 961L376 961L352 961L352 961L329 961L329 961L305 961L305 961L282 961L282 961L258 961L258 961L235 961L235 961L211 961L211 961L188 961L188 961L164 961L164 961L141 961L141 961L117 961L117 961L94 961L94 961L70 961L70 961L47 961L47 961L23 961L23 961L0 961Z" fill="#0400a2"></path><path d="M0 648L23 648L23 538L47 538L47 522L70 522L70 482L94 482L94 581L117 581L117 685L141 685L141 605L164 605L164 492L188 492L188 469L211 469L211 642L235 642L235 708L258 708L258 629L282 629L282 506L305 506L305 568L329 568L329 655L352 655L352 560L376 560L376 530L399 530L399 498L423 498L423 527L446 527L446 528L470 528L470 528L493 528L493 641L517 641L517 448L540 448L540 454L540 961L540 961L517 961L517 961L493 961L493 961L470 961L470 961L446 961L446 961L423 961L423 961L399 961L399 961L376 961L376 961L352 961L352 961L329 961L329 961L305 961L305 961L282 961L282 961L258 961L258 961L235 961L235 961L211 961L211 961L188 961L188 961L164 961L164 961L141 961L141 961L117 961L117 961L94 961L94 961L70 961L70 961L47 961L47 961L23 961L23 961L0 961Z" fill="#0400ac"></path><path d="M0 528L23 528L23 511L47 511L47 577L70 577L70 591L94 591L94 519L117 519L117 632L141 632L141 595L164 595L164 514L188 514L188 581L211 581L211 622L235 622L235 619L258 619L258 592L282 592L282 603L305 603L305 589L329 589L329 736L352 736L352 630L376 630L376 651L399 651L399 538L423 538L423 621L446 621L446 623L470 623L470 607L493 607L493 701L517 701L517 640L540 640L540 646L540 961L540 961L517 961L517 961L493 961L493 961L470 961L470 961L446 961L446 961L423 961L423 961L399 961L399 961L376 961L376 961L352 961L352 961L329 961L329 961L305 961L305 961L282 961L282 961L258 961L258 961L235 961L235 961L211 961L211 961L188 961L188 961L164 961L164 961L141 961L141 961L117 961L117 961L94 961L94 961L70 961L70 961L47 961L47 961L23 961L23 961L0 961Z" fill="#0400b6"></path><path d="M0 630L23 630L23 596L47 596L47 731L70 731L70 639L94 639L94 752L117 752L117 758L141 758L141 769L164 769L164 571L188 571L188 660L211 660L211 569L235 569L235 649L258 649L258 709L282 709L282 691L305 691L305 591L329 591L329 764L352 764L352 737L376 737L376 660L399 660L399 733L423 733L423 705L446 705L446 656L470 656L470 746L493 746L493 710L517 710L517 556L540 556L540 671L540 961L540 961L517 961L517 961L493 961L493 961L470 961L470 961L446 961L446 961L423 961L423 961L399 961L399 961L376 961L376 961L352 961L352 961L329 961L329 961L305 961L305 961L282 961L282 961L258 961L258 961L235 961L235 961L211 961L211 961L188 961L188 961L164 961L164 961L141 961L141 961L117 961L117 961L94 961L94 961L70 961L70 961L47 961L47 961L23 961L23 961L0 961Z" fill="#0400c0"></path><path d="M0 734L23 734L23 802L47 802L47 780L70 780L70 649L94 649L94 625L117 625L117 708L141 708L141 665L164 665L164 781L188 781L188 670L211 670L211 733L235 733L235 714L258 714L258 614L282 614L282 754L305 754L305 785L329 785L329 750L352 750L352 747L376 747L376 704L399 704L399 721L423 721L423 706L446 706L446 768L470 768L470 635L493 635L493 778L517 778L517 654L540 654L540 600L540 961L540 961L517 961L517 961L493 961L493 961L470 961L470 961L446 961L446 961L423 961L423 961L399 961L399 961L376 961L376 961L352 961L352 961L329 961L329 961L305 961L305 961L282 961L282 961L258 961L258 961L235 961L235 961L211 961L211 961L188 961L188 961L164 961L164 961L141 961L141 961L117 961L117 961L94 961L94 961L70 961L70 961L47 961L47 961L23 961L23 961L0 961Z" fill="#0400ca"></path><path d="M0 687L23 687L23 719L47 719L47 707L70 707L70 683L94 683L94 747L117 747L117 789L141 789L141 821L164 821L164 735L188 735L188 809L211 809L211 724L235 724L235 758L258 758L258 825L282 825L282 821L305 821L305 650L329 650L329 794L352 794L352 805L376 805L376 711L399 711L399 716L423 716L423 718L446 718L446 751L470 751L470 669L493 669L493 693L517 693L517 737L540 737L540 720L540 961L540 961L517 961L517 961L493 961L493 961L470 961L470 961L446 961L446 961L423 961L423 961L399 961L399 961L376 961L376 961L352 961L352 961L329 961L329 961L305 961L305 961L282 961L282 961L258 961L258 961L235 961L235 961L211 961L211 961L188 961L188 961L164 961L164 961L141 961L141 961L117 961L117 961L94 961L94 961L70 961L70 961L47 961L47 961L23 961L23 961L0 961Z" fill="#0300d5"></path><path d="M0 816L23 816L23 705L47 705L47 746L70 746L70 845L94 845L94 789L117 789L117 853L141 853L141 807L164 807L164 848L188 848L188 854L211 854L211 839L235 839L235 740L258 740L258 855L282 855L282 853L305 853L305 707L329 707L329 791L352 791L352 792L376 792L376 721L399 721L399 820L423 820L423 755L446 755L446 833L470 833L470 864L493 864L493 831L517 831L517 748L540 748L540 859L540 961L540 961L517 961L517 961L493 961L493 961L470 961L470 961L446 961L446 961L423 961L423 961L399 961L399 961L376 961L376 961L352 961L352 961L329 961L329 961L305 961L305 961L282 961L282 961L258 961L258 961L235 961L235 961L211 961L211 961L188 961L188 961L164 961L164 961L141 961L141 961L117 961L117 961L94 961L94 961L70 961L70 961L47 961L47 961L23 961L23 961L0 961Z" fill="#0300df"></path><path d="M0 832L23 832L23 822L47 822L47 807L70 807L70 785L94 785L94 877L117 877L117 772L141 772L141 772L164 772L164 841L188 841L188 779L211 779L211 775L235 775L235 882L258 882L258 842L282 842L282 892L305 892L305 825L329 825L329 878L352 878L352 857L376 857L376 794L399 794L399 763L423 763L423 760L446 760L446 753L470 753L470 811L493 811L493 801L517 801L517 835L540 835L540 776L540 961L540 961L517 961L517 961L493 961L493 961L470 961L470 961L446 961L446 961L423 961L423 961L399 961L399 961L376 961L376 961L352 961L352 961L329 961L329 961L305 961L305 961L282 961L282 961L258 961L258 961L235 961L235 961L211 961L211 961L188 961L188 961L164 961L164 961L141 961L141 961L117 961L117 961L94 961L94 961L70 961L70 961L47 961L47 961L23 961L23 961L0 961Z" fill="#0200ea"></path><path d="M0 928L23 928L23 826L47 826L47 876L70 876L70 810L94 810L94 905L117 905L117 842L141 842L141 850L164 850L164 811L188 811L188 902L211 902L211 856L235 856L235 820L258 820L258 903L282 903L282 864L305 864L305 859L329 859L329 809L352 809L352 917L376 917L376 883L399 883L399 879L423 879L423 919L446 919L446 924L470 924L470 913L493 913L493 912L517 912L517 839L540 839L540 846L540 961L540 961L517 961L517 961L493 961L493 961L470 961L470 961L446 961L446 961L423 961L423 961L399 961L399 961L376 961L376 961L352 961L352 961L329 961L329 961L305 961L305 961L282 961L282 961L258 961L258 961L235 961L235 961L211 961L211 961L188 961L188 961L164 961L164 961L141 961L141 961L117 961L117 961L94 961L94 961L70 961L70 961L47 961L47 961L23 961L23 961L0 961Z" fill="#0100f4"></path><path d="M0 886L23 886L23 856L47 856L47 942L70 942L70 932L94 932L94 913L117 913L117 884L141 884L141 886L164 886L164 860L188 860L188 940L211 940L211 873L235 873L235 948L258 948L258 903L282 903L282 909L305 909L305 882L329 882L329 868L352 868L352 952L376 952L376 871L399 871L399 926L423 926L423 933L446 933L446 899L470 899L470 909L493 909L493 880L517 880L517 871L540 871L540 944L540 961L540 961L517 961L517 961L493 961L493 961L470 961L470 961L446 961L446 961L423 961L423 961L399 961L399 961L376 961L376 961L352 961L352 961L329 961L329 961L305 961L305 961L282 961L282 961L258 961L258 961L235 961L235 961L211 961L211 961L188 961L188 961L164 961L164 961L141 961L141 961L117 961L117 961L94 961L94 961L70 961L70 961L47 961L47 961L23 961L23 961L0 961Z" fill="#0000ff"></path></svg>