<svg id="visual" viewBox="0 0 540 960" width="540" height="960" xmlns="http://www.w3.org/2000/svg" xmlns:xlink="http://www.w3.org/1999/xlink" version="1.1"><rect x="0" y="0" width="540" height="960" fill="#000221"></rect><path d="M0 501L23 501L23 423L47 423L47 602L70 602L70 656L94 656L94 589L117 589L117 422L141 422L141 420L164 420L164 619L188 619L188 435L211 435L211 425L235 425L235 403L258 403L258 509L282 509L282 463L305 463L305 521L329 521L329 623L352 623L352 652L376 652L376 415L399 415L399 620L423 620L423 446L446 446L446 559L470 559L470 611L493 611L493 584L517 584L517 643L540 643L540 593L540 961L540 961L517 961L517 961L493 961L493 961L470 961L470 961L446 961L446 961L423 961L423 961L399 961L399 961L376 961L376 961L352 961L352 961L329 961L329 961L305 961L305 961L282 961L282 961L258 961L258 961L235 961L235 961L211 961L211 961L188 961L188 961L164 961L164 961L141 961L141 961L117 961L117 961L94 961L94 961L70 961L70 961L47 961L47 961L23 961L23 961L0 961Z" fill="#04008f"></path><path d="M0 430L23 430L23 528L47 528L47 665L70 665L70 428L94 428L94 656L117 656L117 436L141 436L141 672L164 672L164 456L188 456L188 531L211 531L211 655L235 655L235 439L258 439L258 467L282 467L282 620L305 620L305 597L329 597L329 692L352 692L352 648L376 648L376 434L399 434L399 533L423 533L423 570L446 570L446 606L470 606L470 497L493 497L493 518L517 518L517 478L540 478L540 617L540 961L540 961L517 961L517 961L493 961L493 961L470 961L470 961L446 961L446 961L423 961L423 961L399 961L399 961L376 961L376 961L352 961L352 961L329 961L329 961L305 961L305 961L282 961L282 961L258 961L258 961L235 961L235 961L211 961L211 961L188 961L188 961L164 961L164 961L141 961L141 961L117 961L117 961L94 961L94 961L70 961L70 961L47 961L47 961L23 961L23 961L0 961Z" fill="#040099"></path><path d="M0 712L23 712L23 692L47 692L47 707L70 707L70 660L94 660L94 515L117 515L117 617L141 617L141 652L164 652L164 603L188 603L188 622L211 622L211 638L235 638L235 562L258 562L258 549L282 549L282 633L305 633L305 711L329 711L329 641L352 641L352 686L376 686L376 675L399 675L399 570L423 570L423 675L446 675L446 481L470 481L470 621L493 621L493 698L517 698L517 630L540 630L540 512L540 961L540 961L517 961L517 961L493 961L493 961L470 961L470 961L446 961L446 961L423 961L423 961L399 961L399 961L376 961L376 961L352 961L352 961L329 961L329 961L305 961L305 961L282 961L282 961L258 961L258 961L235 961L235 961L211 961L211 961L188 961L188 961L164 961L164 961L141 961L141 961L117 961L117 961L94 961L94 961L70 961L70 961L47 961L47 961L23 961L23 961L0 961Z" fill="#0400a2"></path><path d="M0 693L23 693L23 598L47 598L47 585L70 585L70 550L94 550L94 635L117 635L117 724L141 724L141 656L164 656L164 558L188 558L188 539L211 539L211 687L235 687L235 743L258 743L258 676L282 676L282 571L305 571L305 624L329 624L329 698L352 698L352 617L376 617L376 591L399 591L399 564L423 564L423 588L446 588L446 590L470 590L470 589L493 589L493 686L517 686L517 521L540 521L540 526L540 961L540 961L517 961L517 961L493 961L493 961L470 961L470 961L446 961L446 961L423 961L423 961L399 961L399 961L376 961L376 961L352 961L352 961L329 961L329 961L305 961L305 961L282 961L282 961L258 961L258 961L235 961L235 961L211 961L211 961L188 961L188 961L164 961L164 961L141 961L141 961L117 961L117 961L94 961L94 961L70 961L70 961L47 961L47 961L23 961L23 961L0 961Z" fill="#0400ac"></path><path d="M0 589L23 589L23 575L47 575L47 631L70 631L70 644L94 644L94 582L117 582L117 679L141 679L141 647L164 647L164 578L188 578L188 635L211 635L211 670L235 670L235 668L258 668L258 644L282 644L282 654L305 654L305 642L329 642L329 768L352 768L352 677L376 677L376 695L399 695L399 598L423 598L423 669L446 669L446 671L470 671L470 657L493 657L493 738L517 738L517 685L540 685L540 691L540 961L540 961L517 961L517 961L493 961L493 961L470 961L470 961L446 961L446 961L423 961L423 961L399 961L399 961L376 961L376 961L352 961L352 961L329 961L329 961L305 961L305 961L282 961L282 961L258 961L258 961L235 961L235 961L211 961L211 961L188 961L188 961L164 961L164 961L141 961L141 961L117 961L117 961L94 961L94 961L70 961L70 961L47 961L47 961L23 961L23 961L0 961Z" fill="#0400b6"></path><path d="M0 677L23 677L23 648L47 648L47 764L70 764L70 684L94 684L94 781L117 781L117 787L141 787L141 797L164 797L164 626L188 626L188 702L211 702L211 624L235 624L235 694L258 694L258 745L282 745L282 729L305 729L305 644L329 644L329 792L352 792L352 768L376 768L376 702L399 702L399 765L423 765L423 741L446 741L446 699L470 699L470 776L493 776L493 746L517 746L517 613L540 613L540 712L540 961L540 961L517 961L517 961L493 961L493 961L470 961L470 961L446 961L446 961L423 961L423 961L399 961L399 961L376 961L376 961L352 961L352 961L329 961L329 961L305 961L305 961L282 961L282 961L258 961L258 961L235 961L235 961L211 961L211 961L188 961L188 961L164 961L164 961L141 961L141 961L117 961L117 961L94 961L94 961L70 961L70 961L47 961L47 961L23 961L23 961L0 961Z" fill="#0400c0"></path><path d="M0 766L23 766L23 824L47 824L47 806L70 806L70 694L94 694L94 673L117 673L117 744L141 744L141 707L164 707L164 806L188 806L188 712L211 712L211 765L235 765L235 749L258 749L258 664L282 664L282 783L305 783L305 809L329 809L329 779L352 779L352 777L376 777L376 741L399 741L399 755L423 755L423 742L446 742L446 795L470 795L470 681L493 681L493 804L517 804L517 698L540 698L540 651L540 961L540 961L517 961L517 961L493 961L493 961L470 961L470 961L446 961L446 961L423 961L423 961L399 961L399 961L376 961L376 961L352 961L352 961L329 961L329 961L305 961L305 961L282 961L282 961L258 961L258 961L235 961L235 961L211 961L211 961L188 961L188 961L164 961L164 961L141 961L141 961L117 961L117 961L94 961L94 961L70 961L70 961L47 961L47 961L23 961L23 961L0 961Z" fill="#0400ca"></path><path d="M0 726L23 726L23 753L47 753L47 743L70 743L70 723L94 723L94 777L117 777L117 813L141 813L141 841L164 841L164 767L188 767L188 830L211 830L211 758L235 758L235 787L258 787L258 844L282 844L282 841L305 841L305 694L329 694L329 817L352 817L352 827L376 827L376 747L399 747L399 750L423 750L423 752L446 752L446 781L470 781L470 710L493 710L493 731L517 731L517 769L540 769L540 755L540 961L540 961L517 961L517 961L493 961L493 961L470 961L470 961L446 961L446 961L423 961L423 961L399 961L399 961L376 961L376 961L352 961L352 961L329 961L329 961L305 961L305 961L282 961L282 961L258 961L258 961L235 961L235 961L211 961L211 961L188 961L188 961L164 961L164 961L141 961L141 961L117 961L117 961L94 961L94 961L70 961L70 961L47 961L47 961L23 961L23 961L0 961Z" fill="#0300d5"></path><path d="M0 837L23 837L23 741L47 741L47 776L70 776L70 861L94 861L94 813L117 813L117 868L141 868L141 829L164 829L164 864L188 864L188 869L211 869L211 856L235 856L235 771L258 771L258 870L282 870L282 868L305 868L305 743L329 743L329 815L352 815L352 816L376 816L376 755L399 755L399 840L423 840L423 784L446 784L446 851L470 851L470 877L493 877L493 849L517 849L517 778L540 778L540 873L540 961L540 961L517 961L517 961L493 961L493 961L470 961L470 961L446 961L446 961L423 961L423 961L399 961L399 961L376 961L376 961L352 961L352 961L329 961L329 961L305 961L305 961L282 961L282 961L258 961L258 961L235 961L235 961L211 961L211 961L188 961L188 961L164 961L164 961L141 961L141 961L117 961L117 961L94 961L94 961L70 961L70 961L47 961L47 961L23 961L23 961L0 961Z" fill="#0300df"></path><path d="M0 850L23 850L23 842L47 842L47 829L70 829L70 809L94 809L94 888L117 888L117 798L141 798L141 799L164 799L164 858L188 858L188 804L211 804L211 802L235 802L235 893L258 893L258 859L282 859L282 902L305 902L305 844L329 844L329 890L352 890L352 872L376 872L376 817L399 817L399 791L423 791L423 788L446 788L446 783L470 783L470 832L493 832L493 824L517 824L517 853L540 853L540 802L540 961L540 961L517 961L517 961L493 961L493 961L470 961L470 961L446 961L446 961L423 961L423 961L399 961L399 961L376 961L376 961L352 961L352 961L329 961L329 961L305 961L305 961L282 961L282 961L258 961L258 961L235 961L235 961L211 961L211 961L188 961L188 961L164 961L164 961L141 961L141 961L117 961L117 961L94 961L94 961L70 961L70 961L47 961L47 961L23 961L23 961L0 961Z" fill="#0200ea"></path><path d="M0 932L23 932L23 845L47 845L47 888L70 888L70 831L94 831L94 912L117 912L117 858L141 858L141 866L164 866L164 832L188 832L188 910L211 910L211 871L235 871L235 840L258 840L258 911L282 911L282 878L305 878L305 874L329 874L329 831L352 831L352 923L376 923L376 894L399 894L399 890L423 890L423 925L446 925L446 929L470 929L470 920L493 920L493 918L517 918L517 856L540 856L540 863L540 961L540 961L517 961L517 961L493 961L493 961L470 961L470 961L446 961L446 961L423 961L423 961L399 961L399 961L376 961L376 961L352 961L352 961L329 961L329 961L305 961L305 961L282 961L282 961L258 961L258 961L235 961L235 961L211 961L211 961L188 961L188 961L164 961L164 961L141 961L141 961L117 961L117 961L94 961L94 961L70 961L70 961L47 961L47 961L23 961L23 961L0 961Z" fill="#0100f4"></path><path d="M0 896L23 896L23 871L47 871L47 944L70 944L70 936L94 936L94 920L117 920L117 894L141 894L141 896L164 896L164 874L188 874L188 943L211 943L211 886L235 886L235 950L258 950L258 911L282 911L282 916L305 916L305 893L329 893L329 881L352 881L352 953L376 953L376 883L399 883L399 931L423 931L423 937L446 937L446 907L470 907L470 916L493 916L493 891L517 891L517 883L540 883L540 946L540 961L540 961L517 961L517 961L493 961L493 961L470 961L470 961L446 961L446 961L423 961L423 961L399 961L399 961L376 961L376 961L352 961L352 961L329 961L329 961L305 961L305 961L282 961L282 961L258 961L258 961L235 961L235 961L211 961L211 961L188 961L188 961L164 961L164 961L141 961L141 961L117 961L117 961L94 961L94 961L70 961L70 961L47 961L47 961L23 961L23 961L0 961Z" fill="#0000ff"></path></svg>