<svg id="visual" viewBox="0 0 540 960" width="540" height="960" xmlns="http://www.w3.org/2000/svg" xmlns:xlink="http://www.w3.org/1999/xlink" version="1.1"><rect x="0" y="0" width="540" height="960" fill="#000221"></rect><path d="M0 578L23 578L23 512L47 512L47 662L70 662L70 707L94 707L94 651L117 651L117 511L141 511L141 509L164 509L164 675L188 675L188 522L211 522L211 514L235 514L235 495L258 495L258 584L282 584L282 545L305 545L305 594L329 594L329 679L352 679L352 703L376 703L376 506L399 506L399 676L423 676L423 531L446 531L446 626L470 626L470 669L493 669L493 646L517 646L517 695L540 695L540 654L540 961L540 961L517 961L517 961L493 961L493 961L470 961L470 961L446 961L446 961L423 961L423 961L399 961L399 961L376 961L376 961L352 961L352 961L329 961L329 961L305 961L305 961L282 961L282 961L258 961L258 961L235 961L235 961L211 961L211 961L188 961L188 961L164 961L164 961L141 961L141 961L117 961L117 961L94 961L94 961L70 961L70 961L47 961L47 961L23 961L23 961L0 961Z" fill="#04008f"></path><path d="M0 518L23 518L23 600L47 600L47 714L70 714L70 517L94 517L94 706L117 706L117 524L141 524L141 720L164 720L164 540L188 540L188 603L211 603L211 706L235 706L235 526L258 526L258 549L282 549L282 677L305 677L305 658L329 658L329 736L352 736L352 700L376 700L376 522L399 522L399 604L423 604L423 635L446 635L446 665L470 665L470 574L493 574L493 591L517 591L517 558L540 558L540 674L540 961L540 961L517 961L517 961L493 961L493 961L470 961L470 961L446 961L446 961L423 961L423 961L399 961L399 961L376 961L376 961L352 961L352 961L329 961L329 961L305 961L305 961L282 961L282 961L258 961L258 961L235 961L235 961L211 961L211 961L188 961L188 961L164 961L164 961L141 961L141 961L117 961L117 961L94 961L94 961L70 961L70 961L47 961L47 961L23 961L23 961L0 961Z" fill="#040099"></path><path d="M0 753L23 753L23 737L47 737L47 749L70 749L70 710L94 710L94 589L117 589L117 674L141 674L141 703L164 703L164 662L188 662L188 678L211 678L211 691L235 691L235 628L258 628L258 617L282 617L282 687L305 687L305 752L329 752L329 694L352 694L352 732L376 732L376 722L399 722L399 635L423 635L423 723L446 723L446 561L470 561L470 677L493 677L493 741L517 741L517 685L540 685L540 587L540 961L540 961L517 961L517 961L493 961L493 961L470 961L470 961L446 961L446 961L423 961L423 961L399 961L399 961L376 961L376 961L352 961L352 961L329 961L329 961L305 961L305 961L282 961L282 961L258 961L258 961L235 961L235 961L211 961L211 961L188 961L188 961L164 961L164 961L141 961L141 961L117 961L117 961L94 961L94 961L70 961L70 961L47 961L47 961L23 961L23 961L0 961Z" fill="#0400a2"></path><path d="M0 737L23 737L23 658L47 658L47 647L70 647L70 618L94 618L94 689L117 689L117 764L141 764L141 706L164 706L164 625L188 625L188 609L211 609L211 732L235 732L235 779L258 779L258 723L282 723L282 636L305 636L305 679L329 679L329 742L352 742L352 674L376 674L376 652L399 652L399 630L423 630L423 650L446 650L446 651L470 651L470 651L493 651L493 732L517 732L517 594L540 594L540 598L540 961L540 961L517 961L517 961L493 961L493 961L470 961L470 961L446 961L446 961L423 961L423 961L399 961L399 961L376 961L376 961L352 961L352 961L329 961L329 961L305 961L305 961L282 961L282 961L258 961L258 961L235 961L235 961L211 961L211 961L188 961L188 961L164 961L164 961L141 961L141 961L117 961L117 961L94 961L94 961L70 961L70 961L47 961L47 961L23 961L23 961L0 961Z" fill="#0400ac"></path><path d="M0 651L23 651L23 639L47 639L47 686L70 686L70 696L94 696L94 645L117 645L117 725L141 725L141 699L164 699L164 641L188 641L188 689L211 689L211 718L235 718L235 716L258 716L258 697L282 697L282 705L305 705L305 695L329 695L329 800L352 800L352 724L376 724L376 739L399 739L399 658L423 658L423 717L446 717L446 719L470 719L470 707L493 707L493 775L517 775L517 731L540 731L540 735L540 961L540 961L517 961L517 961L493 961L493 961L470 961L470 961L446 961L446 961L423 961L423 961L399 961L399 961L376 961L376 961L352 961L352 961L329 961L329 961L305 961L305 961L282 961L282 961L258 961L258 961L235 961L235 961L211 961L211 961L188 961L188 961L164 961L164 961L141 961L141 961L117 961L117 961L94 961L94 961L70 961L70 961L47 961L47 961L23 961L23 961L0 961Z" fill="#0400b6"></path><path d="M0 724L23 724L23 700L47 700L47 796L70 796L70 730L94 730L94 811L117 811L117 816L141 816L141 824L164 824L164 682L188 682L188 745L211 745L211 680L235 680L235 738L258 738L258 781L282 781L282 767L305 767L305 696L329 696L329 820L352 820L352 800L376 800L376 745L399 745L399 798L423 798L423 777L446 777L446 743L470 743L470 807L493 807L493 781L517 781L517 671L540 671L540 753L540 961L540 961L517 961L517 961L493 961L493 961L470 961L470 961L446 961L446 961L423 961L423 961L399 961L399 961L376 961L376 961L352 961L352 961L329 961L329 961L305 961L305 961L282 961L282 961L258 961L258 961L235 961L235 961L211 961L211 961L188 961L188 961L164 961L164 961L141 961L141 961L117 961L117 961L94 961L94 961L70 961L70 961L47 961L47 961L23 961L23 961L0 961Z" fill="#0400c0"></path><path d="M0 798L23 798L23 847L47 847L47 831L70 831L70 738L94 738L94 720L117 720L117 780L141 780L141 749L164 749L164 832L188 832L188 753L211 753L211 798L235 798L235 784L258 784L258 713L282 713L282 812L305 812L305 834L329 834L329 809L352 809L352 807L376 807L376 777L399 777L399 789L423 789L423 778L446 778L446 823L470 823L470 727L493 727L493 829L517 829L517 741L540 741L540 702L540 961L540 961L517 961L517 961L493 961L493 961L470 961L470 961L446 961L446 961L423 961L423 961L399 961L399 961L376 961L376 961L352 961L352 961L329 961L329 961L305 961L305 961L282 961L282 961L258 961L258 961L235 961L235 961L211 961L211 961L188 961L188 961L164 961L164 961L141 961L141 961L117 961L117 961L94 961L94 961L70 961L70 961L47 961L47 961L23 961L23 961L0 961Z" fill="#0400ca"></path><path d="M0 765L23 765L23 787L47 787L47 779L70 779L70 762L94 762L94 808L117 808L117 838L141 838L141 861L164 861L164 799L188 799L188 852L211 852L211 791L235 791L235 816L258 816L258 863L282 863L282 861L305 861L305 739L329 739L329 841L352 841L352 849L376 849L376 782L399 782L399 785L423 785L423 787L446 787L446 810L470 810L470 752L493 752L493 769L517 769L517 800L540 800L540 789L540 961L540 961L517 961L517 961L493 961L493 961L470 961L470 961L446 961L446 961L423 961L423 961L399 961L399 961L376 961L376 961L352 961L352 961L329 961L329 961L305 961L305 961L282 961L282 961L258 961L258 961L235 961L235 961L211 961L211 961L188 961L188 961L164 961L164 961L141 961L141 961L117 961L117 961L94 961L94 961L70 961L70 961L47 961L47 961L23 961L23 961L0 961Z" fill="#0300d5"></path><path d="M0 857L23 857L23 778L47 778L47 807L70 807L70 878L94 878L94 837L117 837L117 883L141 883L141 851L164 851L164 880L188 880L188 884L211 884L211 873L235 873L235 802L258 802L258 885L282 885L282 883L305 883L305 779L329 779L329 839L352 839L352 840L376 840L376 789L399 789L399 860L423 860L423 813L446 813L446 869L470 869L470 891L493 891L493 868L517 868L517 808L540 808L540 887L540 961L540 961L517 961L517 961L493 961L493 961L470 961L470 961L446 961L446 961L423 961L423 961L399 961L399 961L376 961L376 961L352 961L352 961L329 961L329 961L305 961L305 961L282 961L282 961L258 961L258 961L235 961L235 961L211 961L211 961L188 961L188 961L164 961L164 961L141 961L141 961L117 961L117 961L94 961L94 961L70 961L70 961L47 961L47 961L23 961L23 961L0 961Z" fill="#0300df"></path><path d="M0 868L23 868L23 861L47 861L47 851L70 851L70 834L94 834L94 900L117 900L117 825L141 825L141 826L164 826L164 874L188 874L188 830L211 830L211 828L235 828L235 904L258 904L258 875L282 875L282 911L305 911L305 863L329 863L329 901L352 901L352 886L376 886L376 841L399 841L399 819L423 819L423 817L446 817L446 812L470 812L470 853L493 853L493 846L517 846L517 871L540 871L540 828L540 961L540 961L517 961L517 961L493 961L493 961L470 961L470 961L446 961L446 961L423 961L423 961L399 961L399 961L376 961L376 961L352 961L352 961L329 961L329 961L305 961L305 961L282 961L282 961L258 961L258 961L235 961L235 961L211 961L211 961L188 961L188 961L164 961L164 961L141 961L141 961L117 961L117 961L94 961L94 961L70 961L70 961L47 961L47 961L23 961L23 961L0 961Z" fill="#0200ea"></path><path d="M0 937L23 937L23 864L47 864L47 899L70 899L70 853L94 853L94 920L117 920L117 875L141 875L141 881L164 881L164 854L188 854L188 919L211 919L211 885L235 885L235 860L258 860L258 919L282 919L282 891L305 891L305 888L329 888L329 852L352 852L352 929L376 929L376 905L399 905L399 902L423 902L423 930L446 930L446 934L470 934L470 926L493 926L493 925L517 925L517 873L540 873L540 879L540 961L540 961L517 961L517 961L493 961L493 961L470 961L470 961L446 961L446 961L423 961L423 961L399 961L399 961L376 961L376 961L352 961L352 961L329 961L329 961L305 961L305 961L282 961L282 961L258 961L258 961L235 961L235 961L211 961L211 961L188 961L188 961L164 961L164 961L141 961L141 961L117 961L117 961L94 961L94 961L70 961L70 961L47 961L47 961L23 961L23 961L0 961Z" fill="#0100f4"></path><path d="M0 907L23 907L23 886L47 886L47 947L70 947L70 939L94 939L94 926L117 926L117 905L141 905L141 907L164 907L164 888L188 888L188 945L211 945L211 898L235 898L235 951L258 951L258 919L282 919L282 923L305 923L305 904L329 904L329 894L352 894L352 954L376 954L376 896L399 896L399 936L423 936L423 940L446 940L446 916L470 916L470 923L493 923L493 903L517 903L517 896L540 896L540 948L540 961L540 961L517 961L517 961L493 961L493 961L470 961L470 961L446 961L446 961L423 961L423 961L399 961L399 961L376 961L376 961L352 961L352 961L329 961L329 961L305 961L305 961L282 961L282 961L258 961L258 961L235 961L235 961L211 961L211 961L188 961L188 961L164 961L164 961L141 961L141 961L117 961L117 961L94 961L94 961L70 961L70 961L47 961L47 961L23 961L23 961L0 961Z" fill="#0000ff"></path></svg>