<svg id="visual" viewBox="0 0 540 960" width="540" height="960" xmlns="http://www.w3.org/2000/svg" xmlns:xlink="http://www.w3.org/1999/xlink" version="1.1"><rect x="0" y="0" width="540" height="960" fill="#000221"></rect><path d="M0 654L23 654L23 602L47 602L47 721L70 721L70 757L94 757L94 713L117 713L117 601L141 601L141 599L164 599L164 732L188 732L188 610L211 610L211 603L235 603L235 588L258 588L258 659L282 659L282 628L305 628L305 667L329 667L329 735L352 735L352 754L376 754L376 596L399 596L399 733L423 733L423 617L446 617L446 693L470 693L470 727L493 727L493 709L517 709L517 748L540 748L540 715L540 961L540 961L517 961L517 961L493 961L493 961L470 961L470 961L446 961L446 961L423 961L423 961L399 961L399 961L376 961L376 961L352 961L352 961L329 961L329 961L305 961L305 961L282 961L282 961L258 961L258 961L235 961L235 961L211 961L211 961L188 961L188 961L164 961L164 961L141 961L141 961L117 961L117 961L94 961L94 961L70 961L70 961L47 961L47 961L23 961L23 961L0 961Z" fill="#04008f"></path><path d="M0 606L23 606L23 672L47 672L47 763L70 763L70 605L94 605L94 757L117 757L117 611L141 611L141 768L164 768L164 624L188 624L188 674L211 674L211 757L235 757L235 612L258 612L258 631L282 631L282 733L305 733L305 718L329 718L329 781L352 781L352 752L376 752L376 609L399 609L399 675L423 675L423 700L446 700L446 724L470 724L470 651L493 651L493 665L517 665L517 638L540 638L540 731L540 961L540 961L517 961L517 961L493 961L493 961L470 961L470 961L446 961L446 961L423 961L423 961L399 961L399 961L376 961L376 961L352 961L352 961L329 961L329 961L305 961L305 961L282 961L282 961L258 961L258 961L235 961L235 961L211 961L211 961L188 961L188 961L164 961L164 961L141 961L141 961L117 961L117 961L94 961L94 961L70 961L70 961L47 961L47 961L23 961L23 961L0 961Z" fill="#040099"></path><path d="M0 794L23 794L23 781L47 781L47 791L70 791L70 760L94 760L94 663L117 663L117 731L141 731L141 754L164 754L164 721L188 721L188 735L211 735L211 745L235 745L235 694L258 694L258 686L282 686L282 741L305 741L305 793L329 793L329 747L352 747L352 777L376 777L376 770L399 770L399 700L423 700L423 770L446 770L446 640L470 640L470 734L493 734L493 785L517 785L517 740L540 740L540 661L540 961L540 961L517 961L517 961L493 961L493 961L470 961L470 961L446 961L446 961L423 961L423 961L399 961L399 961L376 961L376 961L352 961L352 961L329 961L329 961L305 961L305 961L282 961L282 961L258 961L258 961L235 961L235 961L211 961L211 961L188 961L188 961L164 961L164 961L141 961L141 961L117 961L117 961L94 961L94 961L70 961L70 961L47 961L47 961L23 961L23 961L0 961Z" fill="#0400a2"></path><path d="M0 781L23 781L23 719L47 719L47 710L70 710L70 686L94 686L94 743L117 743L117 803L141 803L141 757L164 757L164 692L188 692L188 679L211 679L211 778L235 778L235 815L258 815L258 770L282 770L282 700L305 700L305 735L329 735L329 785L352 785L352 731L376 731L376 714L399 714L399 696L423 696L423 712L446 712L446 713L470 713L470 713L493 713L493 777L517 777L517 667L540 667L540 670L540 961L540 961L517 961L517 961L493 961L493 961L470 961L470 961L446 961L446 961L423 961L423 961L399 961L399 961L376 961L376 961L352 961L352 961L329 961L329 961L305 961L305 961L282 961L282 961L258 961L258 961L235 961L235 961L211 961L211 961L188 961L188 961L164 961L164 961L141 961L141 961L117 961L117 961L94 961L94 961L70 961L70 961L47 961L47 961L23 961L23 961L0 961Z" fill="#0400ac"></path><path d="M0 712L23 712L23 703L47 703L47 741L70 741L70 749L94 749L94 708L117 708L117 772L141 772L141 751L164 751L164 705L188 705L188 743L211 743L211 766L235 766L235 765L258 765L258 749L282 749L282 756L305 756L305 748L329 748L329 832L352 832L352 771L376 771L376 783L399 783L399 718L423 718L423 766L446 766L446 767L470 767L470 758L493 758L493 812L517 812L517 777L540 777L540 780L540 961L540 961L517 961L517 961L493 961L493 961L470 961L470 961L446 961L446 961L423 961L423 961L399 961L399 961L376 961L376 961L352 961L352 961L329 961L329 961L305 961L305 961L282 961L282 961L258 961L258 961L235 961L235 961L211 961L211 961L188 961L188 961L164 961L164 961L141 961L141 961L117 961L117 961L94 961L94 961L70 961L70 961L47 961L47 961L23 961L23 961L0 961Z" fill="#0400b6"></path><path d="M0 771L23 771L23 752L47 752L47 829L70 829L70 776L94 776L94 841L117 841L117 844L141 844L141 851L164 851L164 737L188 737L188 788L211 788L211 736L235 736L235 782L258 782L258 816L282 816L282 806L305 806L305 749L329 749L329 847L352 847L352 832L376 832L376 788L399 788L399 830L423 830L423 814L446 814L446 786L470 786L470 837L493 837L493 817L517 817L517 728L540 728L540 795L540 961L540 961L517 961L517 961L493 961L493 961L470 961L470 961L446 961L446 961L423 961L423 961L399 961L399 961L376 961L376 961L352 961L352 961L329 961L329 961L305 961L305 961L282 961L282 961L258 961L258 961L235 961L235 961L211 961L211 961L188 961L188 961L164 961L164 961L141 961L141 961L117 961L117 961L94 961L94 961L70 961L70 961L47 961L47 961L23 961L23 961L0 961Z" fill="#0400c0"></path><path d="M0 830L23 830L23 869L47 869L47 857L70 857L70 782L94 782L94 768L117 768L117 816L141 816L141 791L164 791L164 857L188 857L188 794L211 794L211 830L235 830L235 819L258 819L258 762L282 762L282 842L305 842L305 859L329 859L329 839L352 839L352 838L376 838L376 813L399 813L399 823L423 823L423 814L446 814L446 850L470 850L470 774L493 774L493 855L517 855L517 785L540 785L540 754L540 961L540 961L517 961L517 961L493 961L493 961L470 961L470 961L446 961L446 961L423 961L423 961L399 961L399 961L376 961L376 961L352 961L352 961L329 961L329 961L305 961L305 961L282 961L282 961L258 961L258 961L235 961L235 961L211 961L211 961L188 961L188 961L164 961L164 961L141 961L141 961L117 961L117 961L94 961L94 961L70 961L70 961L47 961L47 961L23 961L23 961L0 961Z" fill="#0400ca"></path><path d="M0 804L23 804L23 822L47 822L47 815L70 815L70 801L94 801L94 838L117 838L117 862L141 862L141 880L164 880L164 831L188 831L188 873L211 873L211 825L235 825L235 844L258 844L258 883L282 883L282 880L305 880L305 783L329 783L329 864L352 864L352 871L376 871L376 817L399 817L399 820L423 820L423 821L446 821L446 840L470 840L470 793L493 793L493 807L517 807L517 832L540 832L540 823L540 961L540 961L517 961L517 961L493 961L493 961L470 961L470 961L446 961L446 961L423 961L423 961L399 961L399 961L376 961L376 961L352 961L352 961L329 961L329 961L305 961L305 961L282 961L282 961L258 961L258 961L235 961L235 961L211 961L211 961L188 961L188 961L164 961L164 961L141 961L141 961L117 961L117 961L94 961L94 961L70 961L70 961L47 961L47 961L23 961L23 961L0 961Z" fill="#0300d5"></path><path d="M0 877L23 877L23 814L47 814L47 837L70 837L70 894L94 894L94 862L117 862L117 898L141 898L141 872L164 872L164 895L188 895L188 899L211 899L211 891L235 891L235 834L258 834L258 900L282 900L282 898L305 898L305 815L329 815L329 863L352 863L352 863L376 863L376 823L399 823L399 880L423 880L423 842L446 842L446 887L470 887L470 905L493 905L493 886L517 886L517 838L540 838L540 902L540 961L540 961L517 961L517 961L493 961L493 961L470 961L470 961L446 961L446 961L423 961L423 961L399 961L399 961L376 961L376 961L352 961L352 961L329 961L329 961L305 961L305 961L282 961L282 961L258 961L258 961L235 961L235 961L211 961L211 961L188 961L188 961L164 961L164 961L141 961L141 961L117 961L117 961L94 961L94 961L70 961L70 961L47 961L47 961L23 961L23 961L0 961Z" fill="#0300df"></path><path d="M0 886L23 886L23 881L47 881L47 872L70 872L70 859L94 859L94 912L117 912L117 852L141 852L141 852L164 852L164 891L188 891L188 856L211 856L211 854L235 854L235 915L258 915L258 892L282 892L282 921L305 921L305 882L329 882L329 913L352 913L352 901L376 901L376 865L399 865L399 847L423 847L423 845L446 845L446 842L470 842L470 874L493 874L493 869L517 869L517 888L540 888L540 854L540 961L540 961L517 961L517 961L493 961L493 961L470 961L470 961L446 961L446 961L423 961L423 961L399 961L399 961L376 961L376 961L352 961L352 961L329 961L329 961L305 961L305 961L282 961L282 961L258 961L258 961L235 961L235 961L211 961L211 961L188 961L188 961L164 961L164 961L141 961L141 961L117 961L117 961L94 961L94 961L70 961L70 961L47 961L47 961L23 961L23 961L0 961Z" fill="#0200ea"></path><path d="M0 941L23 941L23 883L47 883L47 911L70 911L70 874L94 874L94 928L117 928L117 892L141 892L141 897L164 897L164 875L188 875L188 927L211 927L211 900L235 900L235 879L258 879L258 927L282 927L282 905L305 905L305 902L329 902L329 873L352 873L352 935L376 935L376 916L399 916L399 913L423 913L423 936L446 936L446 939L470 939L470 933L493 933L493 932L517 932L517 890L540 890L540 895L540 961L540 961L517 961L517 961L493 961L493 961L470 961L470 961L446 961L446 961L423 961L423 961L399 961L399 961L376 961L376 961L352 961L352 961L329 961L329 961L305 961L305 961L282 961L282 961L258 961L258 961L235 961L235 961L211 961L211 961L188 961L188 961L164 961L164 961L141 961L141 961L117 961L117 961L94 961L94 961L70 961L70 961L47 961L47 961L23 961L23 961L0 961Z" fill="#0100f4"></path><path d="M0 917L23 917L23 900L47 900L47 949L70 949L70 943L94 943L94 933L117 933L117 916L141 916L141 917L164 917L164 902L188 902L188 948L211 948L211 910L235 910L235 953L258 953L258 927L282 927L282 930L305 930L305 915L329 915L329 907L352 907L352 955L376 955L376 909L399 909L399 940L423 940L423 944L446 944L446 925L470 925L470 930L493 930L493 914L517 914L517 909L540 909L540 950L540 961L540 961L517 961L517 961L493 961L493 961L470 961L470 961L446 961L446 961L423 961L423 961L399 961L399 961L376 961L376 961L352 961L352 961L329 961L329 961L305 961L305 961L282 961L282 961L258 961L258 961L235 961L235 961L211 961L211 961L188 961L188 961L164 961L164 961L141 961L141 961L117 961L117 961L94 961L94 961L70 961L70 961L47 961L47 961L23 961L23 961L0 961Z" fill="#0000ff"></path></svg>