<svg id="visual" viewBox="0 0 540 960" width="540" height="960" xmlns="http://www.w3.org/2000/svg" xmlns:xlink="http://www.w3.org/1999/xlink" version="1.1"><rect x="0" y="0" width="540" height="960" fill="#000221"></rect><path d="M0 730L23 730L23 691L47 691L47 781L70 781L70 808L94 808L94 774L117 774L117 690L141 690L141 689L164 689L164 789L188 789L188 697L211 697L211 692L235 692L235 681L258 681L258 734L282 734L282 711L305 711L305 740L329 740L329 791L352 791L352 805L376 805L376 687L399 687L399 789L423 789L423 702L446 702L446 759L470 759L470 785L493 785L493 771L517 771L517 801L540 801L540 776L540 961L540 961L517 961L517 961L493 961L493 961L470 961L470 961L446 961L446 961L423 961L423 961L399 961L399 961L376 961L376 961L352 961L352 961L329 961L329 961L305 961L305 961L282 961L282 961L258 961L258 961L235 961L235 961L211 961L211 961L188 961L188 961L164 961L164 961L141 961L141 961L117 961L117 961L94 961L94 961L70 961L70 961L47 961L47 961L23 961L23 961L0 961Z" fill="#04008f"></path><path d="M0 695L23 695L23 743L47 743L47 812L70 812L70 694L94 694L94 807L117 807L117 698L141 698L141 816L164 816L164 708L188 708L188 745L211 745L211 807L235 807L235 699L258 699L258 713L282 713L282 790L305 790L305 778L329 778L329 825L352 825L352 803L376 803L376 697L399 697L399 746L423 746L423 765L446 765L446 782L470 782L470 728L493 728L493 738L517 738L517 719L540 719L540 788L540 961L540 961L517 961L517 961L493 961L493 961L470 961L470 961L446 961L446 961L423 961L423 961L399 961L399 961L376 961L376 961L352 961L352 961L329 961L329 961L305 961L305 961L282 961L282 961L258 961L258 961L235 961L235 961L211 961L211 961L188 961L188 961L164 961L164 961L141 961L141 961L117 961L117 961L94 961L94 961L70 961L70 961L47 961L47 961L23 961L23 961L0 961Z" fill="#040099"></path><path d="M0 835L23 835L23 826L47 826L47 833L70 833L70 810L94 810L94 737L117 737L117 788L141 788L141 806L164 806L164 781L188 781L188 791L211 791L211 798L235 798L235 761L258 761L258 754L282 754L282 796L305 796L305 835L329 835L329 800L352 800L352 823L376 823L376 817L399 817L399 765L423 765L423 817L446 817L446 720L470 720L470 790L493 790L493 828L517 828L517 794L540 794L540 736L540 961L540 961L517 961L517 961L493 961L493 961L470 961L470 961L446 961L446 961L423 961L423 961L399 961L399 961L376 961L376 961L352 961L352 961L329 961L329 961L305 961L305 961L282 961L282 961L258 961L258 961L235 961L235 961L211 961L211 961L188 961L188 961L164 961L164 961L141 961L141 961L117 961L117 961L94 961L94 961L70 961L70 961L47 961L47 961L23 961L23 961L0 961Z" fill="#0400a2"></path><path d="M0 826L23 826L23 779L47 779L47 772L70 772L70 754L94 754L94 797L117 797L117 842L141 842L141 807L164 807L164 759L188 759L188 749L211 749L211 823L235 823L235 851L258 851L258 818L282 818L282 765L305 765L305 791L329 791L329 829L352 829L352 788L376 788L376 775L399 775L399 761L423 761L423 774L446 774L446 774L470 774L470 774L493 774L493 823L517 823L517 740L540 740L540 742L540 961L540 961L517 961L517 961L493 961L493 961L470 961L470 961L446 961L446 961L423 961L423 961L399 961L399 961L376 961L376 961L352 961L352 961L329 961L329 961L305 961L305 961L282 961L282 961L258 961L258 961L235 961L235 961L211 961L211 961L188 961L188 961L164 961L164 961L141 961L141 961L117 961L117 961L94 961L94 961L70 961L70 961L47 961L47 961L23 961L23 961L0 961Z" fill="#0400ac"></path><path d="M0 774L23 774L23 767L47 767L47 795L70 795L70 801L94 801L94 771L117 771L117 819L141 819L141 803L164 803L164 768L188 768L188 797L211 797L211 814L235 814L235 813L258 813L258 802L282 802L282 807L305 807L305 801L329 801L329 863L352 863L352 818L376 818L376 827L399 827L399 778L423 778L423 814L446 814L446 815L470 815L470 808L493 808L493 848L517 848L517 822L540 822L540 825L540 961L540 961L517 961L517 961L493 961L493 961L470 961L470 961L446 961L446 961L423 961L423 961L399 961L399 961L376 961L376 961L352 961L352 961L329 961L329 961L305 961L305 961L282 961L282 961L258 961L258 961L235 961L235 961L211 961L211 961L188 961L188 961L164 961L164 961L141 961L141 961L117 961L117 961L94 961L94 961L70 961L70 961L47 961L47 961L23 961L23 961L0 961Z" fill="#0400b6"></path><path d="M0 818L23 818L23 804L47 804L47 861L70 861L70 822L94 822L94 870L117 870L117 873L141 873L141 878L164 878L164 793L188 793L188 831L211 831L211 792L235 792L235 826L258 826L258 852L282 852L282 844L305 844L305 801L329 801L329 875L352 875L352 864L376 864L376 831L399 831L399 862L423 862L423 850L446 850L446 829L470 829L470 868L493 868L493 852L517 852L517 786L540 786L540 836L540 961L540 961L517 961L517 961L493 961L493 961L470 961L470 961L446 961L446 961L423 961L423 961L399 961L399 961L376 961L376 961L352 961L352 961L329 961L329 961L305 961L305 961L282 961L282 961L258 961L258 961L235 961L235 961L211 961L211 961L188 961L188 961L164 961L164 961L141 961L141 961L117 961L117 961L94 961L94 961L70 961L70 961L47 961L47 961L23 961L23 961L0 961Z" fill="#0400c0"></path><path d="M0 862L23 862L23 892L47 892L47 882L70 882L70 826L94 826L94 816L117 816L117 851L141 851L141 833L164 833L164 883L188 883L188 835L211 835L211 862L235 862L235 854L258 854L258 811L282 811L282 871L305 871L305 884L329 884L329 869L352 869L352 868L376 868L376 850L399 850L399 857L423 857L423 851L446 851L446 877L470 877L470 820L493 820L493 881L517 881L517 828L540 828L540 805L540 961L540 961L517 961L517 961L493 961L493 961L470 961L470 961L446 961L446 961L423 961L423 961L399 961L399 961L376 961L376 961L352 961L352 961L329 961L329 961L305 961L305 961L282 961L282 961L258 961L258 961L235 961L235 961L211 961L211 961L188 961L188 961L164 961L164 961L141 961L141 961L117 961L117 961L94 961L94 961L70 961L70 961L47 961L47 961L23 961L23 961L0 961Z" fill="#0400ca"></path><path d="M0 842L23 842L23 856L47 856L47 851L70 851L70 841L94 841L94 868L117 868L117 886L141 886L141 900L164 900L164 863L188 863L188 895L211 895L211 858L235 858L235 873L258 873L258 902L282 902L282 900L305 900L305 827L329 827L329 888L352 888L352 893L376 893L376 853L399 853L399 855L423 855L423 856L446 856L446 870L470 870L470 835L493 835L493 845L517 845L517 864L540 864L540 857L540 961L540 961L517 961L517 961L493 961L493 961L470 961L470 961L446 961L446 961L423 961L423 961L399 961L399 961L376 961L376 961L352 961L352 961L329 961L329 961L305 961L305 961L282 961L282 961L258 961L258 961L235 961L235 961L211 961L211 961L188 961L188 961L164 961L164 961L141 961L141 961L117 961L117 961L94 961L94 961L70 961L70 961L47 961L47 961L23 961L23 961L0 961Z" fill="#0300d5"></path><path d="M0 898L23 898L23 850L47 850L47 868L70 868L70 910L94 910L94 886L117 886L117 914L141 914L141 894L164 894L164 911L188 911L188 914L211 914L211 908L235 908L235 865L258 865L258 915L282 915L282 914L305 914L305 851L329 851L329 887L352 887L352 887L376 887L376 857L399 857L399 900L423 900L423 871L446 871L446 905L470 905L470 918L493 918L493 904L517 904L517 868L540 868L540 916L540 961L540 961L517 961L517 961L493 961L493 961L470 961L470 961L446 961L446 961L423 961L423 961L399 961L399 961L376 961L376 961L352 961L352 961L329 961L329 961L305 961L305 961L282 961L282 961L258 961L258 961L235 961L235 961L211 961L211 961L188 961L188 961L164 961L164 961L141 961L141 961L117 961L117 961L94 961L94 961L70 961L70 961L47 961L47 961L23 961L23 961L0 961Z" fill="#0300df"></path><path d="M0 904L23 904L23 900L47 900L47 894L70 894L70 884L94 884L94 924L117 924L117 879L141 879L141 879L164 879L164 908L188 908L188 882L211 882L211 880L235 880L235 926L258 926L258 909L282 909L282 930L305 930L305 901L329 901L329 924L352 924L352 915L376 915L376 888L399 888L399 875L423 875L423 874L446 874L446 871L470 871L470 896L493 896L493 891L517 891L517 906L540 906L540 880L540 961L540 961L517 961L517 961L493 961L493 961L470 961L470 961L446 961L446 961L423 961L423 961L399 961L399 961L376 961L376 961L352 961L352 961L329 961L329 961L305 961L305 961L282 961L282 961L258 961L258 961L235 961L235 961L211 961L211 961L188 961L188 961L164 961L164 961L141 961L141 961L117 961L117 961L94 961L94 961L70 961L70 961L47 961L47 961L23 961L23 961L0 961Z" fill="#0200ea"></path><path d="M0 946L23 946L23 902L47 902L47 923L70 923L70 895L94 895L94 936L117 936L117 909L141 909L141 912L164 912L164 896L188 896L188 935L211 935L211 915L235 915L235 899L258 899L258 935L282 935L282 918L305 918L305 916L329 916L329 895L352 895L352 941L376 941L376 927L399 927L399 925L423 925L423 942L446 942L446 944L470 944L470 939L493 939L493 939L517 939L517 908L540 908L540 911L540 961L540 961L517 961L517 961L493 961L493 961L470 961L470 961L446 961L446 961L423 961L423 961L399 961L399 961L376 961L376 961L352 961L352 961L329 961L329 961L305 961L305 961L282 961L282 961L258 961L258 961L235 961L235 961L211 961L211 961L188 961L188 961L164 961L164 961L141 961L141 961L117 961L117 961L94 961L94 961L70 961L70 961L47 961L47 961L23 961L23 961L0 961Z" fill="#0100f4"></path><path d="M0 928L23 928L23 915L47 915L47 952L70 952L70 947L94 947L94 939L117 939L117 927L141 927L141 928L164 928L164 917L188 917L188 951L211 951L211 922L235 922L235 954L258 954L258 935L282 935L282 937L305 937L305 926L329 926L329 920L352 920L352 956L376 956L376 921L399 921L399 945L423 945L423 948L446 948L446 933L470 933L470 937L493 937L493 925L517 925L517 921L540 921L540 953L540 961L540 961L517 961L517 961L493 961L493 961L470 961L470 961L446 961L446 961L423 961L423 961L399 961L399 961L376 961L376 961L352 961L352 961L329 961L329 961L305 961L305 961L282 961L282 961L258 961L258 961L235 961L235 961L211 961L211 961L188 961L188 961L164 961L164 961L141 961L141 961L117 961L117 961L94 961L94 961L70 961L70 961L47 961L47 961L23 961L23 961L0 961Z" fill="#0000ff"></path></svg>