<svg id="visual" viewBox="0 0 540 960" width="540" height="960" xmlns="http://www.w3.org/2000/svg" xmlns:xlink="http://www.w3.org/1999/xlink" version="1.1"><rect x="0" y="0" width="540" height="960" fill="#000221"></rect><path d="M0 806L23 806L23 780L47 780L47 840L70 840L70 858L94 858L94 836L117 836L117 780L141 780L141 779L164 779L164 846L188 846L188 784L211 784L211 781L235 781L235 774L258 774L258 809L282 809L282 794L305 794L305 813L329 813L329 847L352 847L352 857L376 857L376 778L399 778L399 846L423 846L423 788L446 788L446 826L470 826L470 843L493 843L493 834L517 834L517 854L540 854L540 837L540 961L540 961L517 961L517 961L493 961L493 961L470 961L470 961L446 961L446 961L423 961L423 961L399 961L399 961L376 961L376 961L352 961L352 961L329 961L329 961L305 961L305 961L282 961L282 961L258 961L258 961L235 961L235 961L211 961L211 961L188 961L188 961L164 961L164 961L141 961L141 961L117 961L117 961L94 961L94 961L70 961L70 961L47 961L47 961L23 961L23 961L0 961Z" fill="#04008f"></path><path d="M0 783L23 783L23 815L47 815L47 861L70 861L70 782L94 782L94 858L117 858L117 785L141 785L141 863L164 863L164 791L188 791L188 816L211 816L211 858L235 858L235 786L258 786L258 795L282 795L282 846L305 846L305 838L329 838L329 870L352 870L352 855L376 855L376 784L399 784L399 817L423 817L423 829L446 829L446 841L470 841L470 805L493 805L493 812L517 812L517 799L540 799L540 845L540 961L540 961L517 961L517 961L493 961L493 961L470 961L470 961L446 961L446 961L423 961L423 961L399 961L399 961L376 961L376 961L352 961L352 961L329 961L329 961L305 961L305 961L282 961L282 961L258 961L258 961L235 961L235 961L211 961L211 961L188 961L188 961L164 961L164 961L141 961L141 961L117 961L117 961L94 961L94 961L70 961L70 961L47 961L47 961L23 961L23 961L0 961Z" fill="#040099"></path><path d="M0 877L23 877L23 870L47 870L47 875L70 875L70 859L94 859L94 811L117 811L117 845L141 845L141 857L164 857L164 840L188 840L188 847L211 847L211 852L235 852L235 827L258 827L258 822L282 822L282 850L305 850L305 876L329 876L329 853L352 853L352 868L376 868L376 864L399 864L399 829L423 829L423 864L446 864L446 800L470 800L470 846L493 846L493 872L517 872L517 849L540 849L540 810L540 961L540 961L517 961L517 961L493 961L493 961L470 961L470 961L446 961L446 961L423 961L423 961L399 961L399 961L376 961L376 961L352 961L352 961L329 961L329 961L305 961L305 961L282 961L282 961L258 961L258 961L235 961L235 961L211 961L211 961L188 961L188 961L164 961L164 961L141 961L141 961L117 961L117 961L94 961L94 961L70 961L70 961L47 961L47 961L23 961L23 961L0 961Z" fill="#0400a2"></path><path d="M0 870L23 870L23 839L47 839L47 834L70 834L70 823L94 823L94 851L117 851L117 881L141 881L141 858L164 858L164 825L188 825L188 819L211 819L211 868L235 868L235 887L258 887L258 865L282 865L282 830L305 830L305 847L329 847L329 872L352 872L352 845L376 845L376 836L399 836L399 827L423 827L423 835L446 835L446 836L470 836L470 836L493 836L493 868L517 868L517 813L540 813L540 815L540 961L540 961L517 961L517 961L493 961L493 961L470 961L470 961L446 961L446 961L423 961L423 961L399 961L399 961L376 961L376 961L352 961L352 961L329 961L329 961L305 961L305 961L282 961L282 961L258 961L258 961L235 961L235 961L211 961L211 961L188 961L188 961L164 961L164 961L141 961L141 961L117 961L117 961L94 961L94 961L70 961L70 961L47 961L47 961L23 961L23 961L0 961Z" fill="#0400ac"></path><path d="M0 836L23 836L23 831L47 831L47 850L70 850L70 854L94 854L94 833L117 833L117 866L141 866L141 855L164 855L164 832L188 832L188 851L211 851L211 863L235 863L235 862L258 862L258 854L282 854L282 857L305 857L305 853L329 853L329 895L352 895L352 865L376 865L376 871L399 871L399 839L423 839L423 862L446 862L446 863L470 863L470 858L493 858L493 885L517 885L517 868L540 868L540 870L540 961L540 961L517 961L517 961L493 961L493 961L470 961L470 961L446 961L446 961L423 961L423 961L399 961L399 961L376 961L376 961L352 961L352 961L329 961L329 961L305 961L305 961L282 961L282 961L258 961L258 961L235 961L235 961L211 961L211 961L188 961L188 961L164 961L164 961L141 961L141 961L117 961L117 961L94 961L94 961L70 961L70 961L47 961L47 961L23 961L23 961L0 961Z" fill="#0400b6"></path><path d="M0 865L23 865L23 855L47 855L47 894L70 894L70 867L94 867L94 900L117 900L117 902L141 902L141 905L164 905L164 848L188 848L188 873L211 873L211 847L235 847L235 871L258 871L258 888L282 888L282 882L305 882L305 854L329 854L329 903L352 903L352 895L376 895L376 873L399 873L399 894L423 894L423 886L446 886L446 872L470 872L470 898L493 898L493 888L517 888L517 844L540 844L540 877L540 961L540 961L517 961L517 961L493 961L493 961L470 961L470 961L446 961L446 961L423 961L423 961L399 961L399 961L376 961L376 961L352 961L352 961L329 961L329 961L305 961L305 961L282 961L282 961L258 961L258 961L235 961L235 961L211 961L211 961L188 961L188 961L164 961L164 961L141 961L141 961L117 961L117 961L94 961L94 961L70 961L70 961L47 961L47 961L23 961L23 961L0 961Z" fill="#0400c0"></path><path d="M0 895L23 895L23 914L47 914L47 908L70 908L70 871L94 871L94 864L117 864L117 887L141 887L141 875L164 875L164 908L188 908L188 877L211 877L211 894L235 894L235 889L258 889L258 861L282 861L282 900L305 900L305 909L329 909L329 899L352 899L352 898L376 898L376 886L399 886L399 891L423 891L423 887L446 887L446 904L470 904L470 866L493 866L493 907L517 907L517 872L540 872L540 856L540 961L540 961L517 961L517 961L493 961L493 961L470 961L470 961L446 961L446 961L423 961L423 961L399 961L399 961L376 961L376 961L352 961L352 961L329 961L329 961L305 961L305 961L282 961L282 961L258 961L258 961L235 961L235 961L211 961L211 961L188 961L188 961L164 961L164 961L141 961L141 961L117 961L117 961L94 961L94 961L70 961L70 961L47 961L47 961L23 961L23 961L0 961Z" fill="#0400ca"></path><path d="M0 881L23 881L23 890L47 890L47 887L70 887L70 880L94 880L94 898L117 898L117 910L141 910L141 920L164 920L164 895L188 895L188 916L211 916L211 892L235 892L235 902L258 902L258 921L282 921L282 920L305 920L305 871L329 871L329 912L352 912L352 915L376 915L376 888L399 888L399 889L423 889L423 890L446 890L446 900L470 900L470 876L493 876L493 883L517 883L517 896L540 896L540 891L540 961L540 961L517 961L517 961L493 961L493 961L470 961L470 961L446 961L446 961L423 961L423 961L399 961L399 961L376 961L376 961L352 961L352 961L329 961L329 961L305 961L305 961L282 961L282 961L258 961L258 961L235 961L235 961L211 961L211 961L188 961L188 961L164 961L164 961L141 961L141 961L117 961L117 961L94 961L94 961L70 961L70 961L47 961L47 961L23 961L23 961L0 961Z" fill="#0300d5"></path><path d="M0 918L23 918L23 886L47 886L47 898L70 898L70 926L94 926L94 910L117 910L117 929L141 929L141 916L164 916L164 927L188 927L188 929L211 929L211 925L235 925L235 896L258 896L258 929L282 929L282 929L305 929L305 887L329 887L329 911L352 911L352 911L376 911L376 891L399 891L399 919L423 919L423 901L446 901L446 923L470 923L470 932L493 932L493 922L517 922L517 899L540 899L540 930L540 961L540 961L517 961L517 961L493 961L493 961L470 961L470 961L446 961L446 961L423 961L423 961L399 961L399 961L376 961L376 961L352 961L352 961L329 961L329 961L305 961L305 961L282 961L282 961L258 961L258 961L235 961L235 961L211 961L211 961L188 961L188 961L164 961L164 961L141 961L141 961L117 961L117 961L94 961L94 961L70 961L70 961L47 961L47 961L23 961L23 961L0 961Z" fill="#0300df"></path><path d="M0 923L23 923L23 920L47 920L47 916L70 916L70 909L94 909L94 935L117 935L117 905L141 905L141 906L164 906L164 925L188 925L188 907L211 907L211 907L235 907L235 937L258 937L258 926L282 926L282 940L305 940L305 921L329 921L329 936L352 936L352 930L376 930L376 912L399 912L399 903L423 903L423 902L446 902L446 900L470 900L470 917L493 917L493 914L517 914L517 924L540 924L540 907L540 961L540 961L517 961L517 961L493 961L493 961L470 961L470 961L446 961L446 961L423 961L423 961L399 961L399 961L376 961L376 961L352 961L352 961L329 961L329 961L305 961L305 961L282 961L282 961L258 961L258 961L235 961L235 961L211 961L211 961L188 961L188 961L164 961L164 961L141 961L141 961L117 961L117 961L94 961L94 961L70 961L70 961L47 961L47 961L23 961L23 961L0 961Z" fill="#0200ea"></path><path d="M0 950L23 950L23 921L47 921L47 935L70 935L70 916L94 916L94 943L117 943L117 925L141 925L141 928L164 928L164 917L188 917L188 943L211 943L211 930L235 930L235 919L258 919L258 943L282 943L282 932L305 932L305 931L329 931L329 916L352 916L352 947L376 947L376 937L399 937L399 936L423 936L423 948L446 948L446 949L470 949L470 946L493 946L493 945L517 945L517 925L540 925L540 927L540 961L540 961L517 961L517 961L493 961L493 961L470 961L470 961L446 961L446 961L423 961L423 961L399 961L399 961L376 961L376 961L352 961L352 961L329 961L329 961L305 961L305 961L282 961L282 961L258 961L258 961L235 961L235 961L211 961L211 961L188 961L188 961L164 961L164 961L141 961L141 961L117 961L117 961L94 961L94 961L70 961L70 961L47 961L47 961L23 961L23 961L0 961Z" fill="#0100f4"></path><path d="M0 938L23 938L23 930L47 930L47 954L70 954L70 951L94 951L94 946L117 946L117 937L141 937L141 938L164 938L164 931L188 931L188 954L211 954L211 935L235 935L235 956L258 956L258 943L282 943L282 945L305 945L305 937L329 937L329 933L352 933L352 957L376 957L376 934L399 934L399 950L423 950L423 952L446 952L446 942L470 942L470 945L493 945L493 936L517 936L517 934L540 934L540 955L540 961L540 961L517 961L517 961L493 961L493 961L470 961L470 961L446 961L446 961L423 961L423 961L399 961L399 961L376 961L376 961L352 961L352 961L329 961L329 961L305 961L305 961L282 961L282 961L258 961L258 961L235 961L235 961L211 961L211 961L188 961L188 961L164 961L164 961L141 961L141 961L117 961L117 961L94 961L94 961L70 961L70 961L47 961L47 961L23 961L23 961L0 961Z" fill="#0000ff"></path></svg>